<?xml version="1.0" standalone="no"?>
<!DOCTYPE svg PUBLIC "-//W3C//DTD SVG 20010904//EN"
 "http://www.w3.org/TR/2001/REC-SVG-20010904/DTD/svg10.dtd">
<svg version="1.0" xmlns="http://www.w3.org/2000/svg"
 width="4096.000000pt" height="4096.000000pt" viewBox="0 0 4096.000000 4096.000000"
 preserveAspectRatio="xMidYMid meet">

<g transform="translate(0.000000,4096.000000) scale(0.100000,-0.100000)"
fill="#000000" stroke="none">
<path d="M3640 38383 c-115 -17 -270 -68 -377 -122 -349 -178 -593 -497 -679
-891 -18 -83 -19 -309 -19 -7930 0 -7621 1 -7847 19 -7930 101 -463 418 -818
859 -965 210 -70 -104 -65 4195 -65 l3881 0 4 -1477 c4 -1563 4 -1562 52
-1923 250 -1864 1311 -3526 2903 -4549 754 -484 1635 -815 2502 -940 454 -66
387 -63 2018 -68 l1482 -4 0 -103 c0 -143 17 -477 35 -681 144 -1621 725
-3163 1693 -4490 123 -169 369 -474 518 -645 240 -274 687 -707 991 -962 2033
-1699 4724 -2408 7328 -1932 1109 203 2157 610 3130 1216 927 577 1764 1348
2437 2243 873 1162 1463 2559 1682 3985 323 2106 -105 4231 -1219 6045 -255
416 -565 836 -906 1227 -176 202 -625 651 -819 820 -621 541 -1208 935 -1920
1292 -447 223 -777 359 -1236 509 -813 266 -1631 406 -2526 433 l-227 7 -4
1481 c-4 1563 -4 1534 -52 1911 -55 433 -184 950 -340 1369 -395 1061 -1052
1992 -1910 2706 -936 780 -2075 1281 -3260 1435 -374 49 -355 48 -1917 52
l-1478 4 0 3881 c0 4299 5 3985 -65 4195 -131 393 -424 687 -816 817 -216 72
533 66 -8090 65 -6748 -1 -7787 -3 -7869 -16z m14280 -8943 l0 -6400 -6400 0
-6400 0 0 6400 0 6400 6400 0 6400 0 0 -6400z m5560 -2583 c484 -65 916 -198
1317 -407 1051 -548 1796 -1546 2017 -2705 65 -342 61 -124 61 -3270 l0 -2850
-22 -165 c-12 -91 -34 -221 -48 -290 -312 -1532 -1523 -2729 -3060 -3024 -340
-65 -125 -61 -3265 -61 -3178 0 -2925 -5 -3305 70 -935 186 -1769 718 -2348
1500 -339 458 -574 998 -682 1565 -60 321 -58 256 -62 1823 l-4 1437 2602 0
c2885 0 2708 -4 2918 66 392 130 685 424 816 817 69 207 65 34 65 2916 l0
2602 1438 -4 c1272 -3 1451 -5 1562 -20z m6465 -8957 c1506 -124 2884 -756
3969 -1819 862 -846 1457 -1889 1746 -3061 122 -497 175 -946 175 -1500 0
-567 -53 -1007 -181 -1525 -514 -2072 -2047 -3770 -4060 -4498 -525 -190
-1068 -307 -1664 -359 -300 -26 -876 -15 -1205 23 -1129 130 -2188 551 -3100
1232 -889 665 -1597 1552 -2043 2562 -331 749 -508 1529 -538 2373 l-7 192 85
0 c139 0 441 20 633 41 999 111 1955 460 2813 1026 730 481 1388 1150 1862
1893 627 982 964 2071 1006 3249 l7 194 191 -7 c105 -4 245 -11 311 -16z"/>
</g>
</svg>
