<?xml version="1.0" standalone="no"?>
<!DOCTYPE svg PUBLIC "-//W3C//DTD SVG 20010904//EN"
 "http://www.w3.org/TR/2001/REC-SVG-20010904/DTD/svg10.dtd">
<svg version="1.0" xmlns="http://www.w3.org/2000/svg"
 width="1600.000000pt" height="1600.000000pt" viewBox="0 0 1600.000000 1600.000000"
 preserveAspectRatio="xMidYMid meet">

<g transform="translate(0.000000,1600.000000) scale(0.100000,-0.100000)"
fill="#000000" stroke="none">
<path d="M2355 13993 c-203 -24 -375 -76 -544 -163 -411 -213 -701 -605 -787
-1065 -18 -97 -19 -239 -19 -4265 0 -4026 1 -4168 19 -4265 85 -459 376 -851
786 -1064 129 -67 246 -109 395 -142 95 -21 126 -23 651 -26 l550 -4 33 88
c103 275 288 588 483 821 l78 92 -778 0 c-657 0 -787 2 -835 15 -185 48 -324
187 -372 372 -13 50 -15 553 -15 4113 0 3582 2 4063 15 4114 25 96 66 167 135
236 69 69 140 110 236 135 52 13 695 15 5614 15 4919 0 5562 -2 5614 -15 148
-39 269 -136 331 -266 19 -41 39 -98 45 -128 7 -35 10 -829 10 -2322 l0 -2269
500 0 500 0 -3 2348 -3 2347 -21 96 c-102 459 -381 830 -783 1038 -128 66
-254 112 -399 144 l-96 21 -5655 2 c-3110 0 -5668 -1 -5685 -3z"/>
<path d="M3000 11500 l0 -500 500 0 500 0 0 500 0 500 -500 0 -500 0 0 -500z"/>
<path d="M12000 11500 l0 -500 500 0 500 0 0 500 0 500 -500 0 -500 0 0 -500z"/>
<path d="M3000 9500 l0 -500 500 0 500 0 0 500 0 500 -500 0 -500 0 0 -500z"/>
<path d="M12000 9500 l0 -500 500 0 500 0 0 500 0 500 -500 0 -500 0 0 -500z"/>
<path d="M6844 8989 c-796 -57 -1489 -599 -1738 -1359 -138 -420 -136 -851 4
-1272 222 -671 807 -1183 1502 -1317 485 -94 988 -7 1410 242 196 116 385 280
511 442 38 50 73 91 78 93 10 4 1999 -1307 1999 -1318 0 -7 -1942 -1348 -1963
-1355 -7 -2 -34 28 -62 67 -63 90 -203 238 -304 322 -460 383 -1086 540 -1680
420 -703 -141 -1273 -645 -1495 -1324 -138 -420 -136 -851 4 -1272 222 -671
807 -1183 1502 -1317 639 -123 1295 66 1761 508 417 396 630 927 615 1536 l-3
139 1250 847 c688 467 1255 846 1262 844 6 -2 662 -434 1458 -959 l1447 -956
795 2 796 3 -3504 2385 -3504 2386 3 139 c15 609 -198 1140 -615 1536 -336
319 -763 504 -1239 539 -76 5 -148 9 -159 8 -11 0 -70 -4 -131 -9z m411 -1018
c246 -67 487 -254 616 -478 51 -90 104 -241 120 -343 18 -116 6 -306 -26 -415
-93 -322 -333 -575 -643 -681 -132 -45 -222 -58 -372 -51 -93 4 -148 12 -215
32 -322 93 -575 333 -681 643 -41 119 -54 199 -54 322 0 123 13 203 54 322
114 336 403 590 756 664 99 20 343 12 445 -15z m0 -5000 c246 -67 487 -254
616 -478 51 -90 104 -241 120 -343 18 -116 6 -306 -26 -415 -93 -322 -333
-575 -643 -681 -132 -45 -222 -58 -372 -51 -93 4 -148 12 -215 32 -322 93
-575 333 -681 643 -41 119 -54 199 -54 322 0 123 13 203 54 322 114 336 403
590 756 664 99 20 343 12 445 -15z"/>
<path d="M3000 7500 l0 -500 500 0 500 0 0 500 0 500 -500 0 -500 0 0 -500z"/>
<path d="M12000 7500 l0 -500 283 0 282 0 215 139 215 139 3 361 2 361 -500 0
-500 0 0 -500z"/>
<path d="M13403 6352 c-546 -356 -993 -650 -993 -653 0 -3 201 -139 446 -303
l446 -298 27 19 c14 11 409 289 876 618 1636 1152 1770 1247 1780 1256 5 5
-316 9 -790 8 l-800 -1 -992 -646z"/>
<path d="M3000 5500 l0 -500 500 0 500 0 0 500 0 500 -500 0 -500 0 0 -500z"/>
</g>
</svg>
