<?xml version="1.0" standalone="no"?>
<!DOCTYPE svg PUBLIC "-//W3C//DTD SVG 20010904//EN"
 "http://www.w3.org/TR/2001/REC-SVG-20010904/DTD/svg10.dtd">
<svg version="1.0" xmlns="http://www.w3.org/2000/svg"
 width="1600.000000pt" height="1600.000000pt" viewBox="0 0 1600.000000 1600.000000"
 preserveAspectRatio="xMidYMid meet">

<g transform="translate(0.000000,1600.000000) scale(0.100000,-0.100000)"
fill="#000000" stroke="none">
<path d="M14125 10638 c-35 -9 -242 -212 -1738 -1707 -934 -933 -1706 -1710
-1717 -1726 -10 -17 -105 -289 -211 -605 -203 -608 -211 -639 -176 -706 32
-62 114 -114 181 -114 32 0 1167 380 1211 405 22 13 803 788 1736 1722 l1697
1698 12 53 c10 42 10 63 0 100 -12 43 -48 82 -418 454 -463 465 -453 457 -577
426z m293 -1165 l-233 -233 -232 232 -233 233 232 232 233 233 232 -232 233
-233 -232 -232z m-743 -283 l230 -230 -1218 -1218 -1218 -1218 -345 -115
c-189 -63 -344 -110 -344 -105 0 6 50 162 111 346 l111 335 1217 1218 c669
669 1218 1217 1221 1217 3 0 109 -104 235 -230z"/>
<path d="M1450 10461 c-111 -36 -201 -87 -279 -157 -132 -120 -201 -243 -239
-425 -16 -78 -17 -231 -17 -2129 0 -1919 1 -2050 18 -2132 56 -275 233 -479
500 -576 70 -25 81 -26 372 -31 165 -3 305 -5 312 -3 6 2 14 15 18 30 21 88
139 293 234 407 l41 50 -397 5 -398 5 -58 29 c-47 23 -66 40 -95 85 l-37 56 0
2075 0 2075 36 55 c26 40 51 63 90 85 l54 30 2775 3 c1999 2 2789 0 2827 -8
74 -16 134 -60 169 -122 l29 -53 3 -1158 2 -1157 248 2 247 3 0 1180 0 1180
-23 78 c-73 252 -253 438 -502 518 l-90 29 -2878 0 -2877 -1 -85 -28z"/>
<path d="M9787 10459 c-301 -44 -568 -257 -676 -538 -65 -169 -61 -8 -61
-2416 0 -1958 2 -2194 16 -2263 75 -363 360 -635 724 -691 56 -9 663 -11 2365
-9 l2290 3 80 23 c115 34 209 80 301 150 179 135 300 338 334 558 7 46 10 425
8 1136 -3 1060 -3 1067 -24 1094 -56 76 -130 106 -219 90 -43 -8 -113 -68
-132 -113 -11 -26 -13 -222 -13 -1066 0 -697 -4 -1053 -11 -1093 -26 -145
-128 -276 -265 -341 l-79 -38 -2298 -3 c-2282 -2 -2298 -2 -2357 18 -167 56
-288 195 -319 364 -15 84 -15 4278 0 4362 29 160 145 297 310 365 28 12 233
15 1184 19 1047 5 1153 6 1180 22 66 36 115 113 115 181 0 57 -46 134 -98 165
l-47 27 -1125 1 c-619 1 -1151 -2 -1183 -7z"/>
<path d="M1920 9250 l0 -250 250 0 250 0 -2 248 -3 247 -247 3 -248 2 0 -250z"/>
<path d="M6410 9250 l0 -250 250 0 250 0 0 250 0 250 -250 0 -250 0 0 -250z"/>
<path d="M1920 8250 l0 -250 250 0 250 0 0 250 0 250 -250 0 -250 0 0 -250z"/>
<path d="M6410 8250 l0 -250 250 0 250 0 0 250 0 250 -250 0 -250 0 0 -250z"/>
<path d="M3830 7994 c-14 -2 -56 -9 -95 -15 -296 -48 -568 -249 -705 -519 -86
-172 -117 -318 -107 -514 8 -151 24 -218 85 -354 121 -271 357 -473 645 -552
152 -42 370 -42 524 0 194 52 436 211 514 338 12 17 24 32 29 32 5 0 41 -22
82 -48 192 -128 684 -452 773 -510 55 -36 110 -74 123 -83 l23 -17 -128 -88
c-71 -48 -157 -108 -193 -133 -36 -25 -94 -65 -130 -89 -36 -25 -99 -68 -140
-97 -41 -28 -118 -81 -170 -117 -52 -35 -122 -83 -154 -106 -33 -23 -64 -42
-71 -42 -6 0 -18 12 -27 28 -9 15 -43 54 -75 88 -290 301 -745 389 -1128 217
-414 -186 -646 -625 -571 -1084 14 -89 68 -239 114 -319 104 -179 277 -335
467 -418 92 -40 157 -57 289 -78 102 -15 116 -15 225 1 142 22 222 45 325 96
257 128 445 354 515 620 31 118 43 208 40 297 -2 62 0 85 11 96 8 7 78 56 155
108 77 52 203 137 280 190 77 52 232 157 345 233 113 76 261 176 328 222 68
47 129 82 136 80 13 -5 240 -154 856 -562 206 -136 425 -281 487 -321 l112
-74 386 0 c233 0 385 4 385 9 0 6 -37 34 -82 65 -46 30 -166 111 -268 181
-102 70 -234 160 -295 201 -60 42 -171 117 -245 167 -135 93 -351 239 -640
435 -85 58 -191 130 -235 161 -44 30 -136 93 -205 140 -69 46 -206 140 -305
207 -99 68 -236 161 -305 208 -69 46 -179 121 -245 166 -66 46 -223 153 -350
238 -126 86 -248 169 -271 186 l-40 31 4 78 c5 84 -9 190 -39 305 -91 343
-392 624 -749 698 -75 15 -244 26 -290 18z m209 -509 c122 -32 245 -125 308
-232 59 -101 79 -262 48 -383 -21 -80 -59 -145 -124 -213 -205 -213 -534 -206
-734 17 -51 57 -106 179 -117 260 -35 246 125 484 370 552 61 17 184 17 249
-1z m-28 -2489 c236 -50 399 -250 399 -489 0 -201 -106 -368 -290 -456 -74
-36 -76 -36 -205 -36 -129 0 -130 0 -208 37 -149 71 -263 221 -287 382 -39
252 139 506 394 561 80 18 117 18 197 1z"/>
<path d="M1920 7250 l0 -250 248 2 247 3 3 248 2 247 -250 0 -250 0 0 -250z"/>
<path d="M6410 7250 l0 -250 136 0 c82 0 144 4 157 11 22 12 101 61 170 107
l37 25 0 178 0 179 -250 0 -250 0 0 -250z"/>
<path d="M7585 6985 c-11 -7 -94 -61 -185 -120 -91 -59 -194 -127 -230 -150
-36 -23 -123 -80 -195 -127 -307 -200 -355 -231 -355 -237 0 -3 99 -72 220
-152 l220 -147 102 72 c57 40 128 89 158 111 106 75 316 222 371 261 545 382
698 490 699 497 0 4 -177 7 -392 6 -314 0 -397 -3 -413 -14z"/>
<path d="M1922 6253 l3 -248 245 0 245 0 3 248 2 247 -250 0 -250 0 2 -247z"/>
</g>
</svg>
