<?xml version="1.0" standalone="no"?>
<!DOCTYPE svg PUBLIC "-//W3C//DTD SVG 20010904//EN"
 "http://www.w3.org/TR/2001/REC-SVG-20010904/DTD/svg10.dtd">
<svg version="1.0" xmlns="http://www.w3.org/2000/svg"
 width="980.000000pt" height="978.000000pt" viewBox="0 0 980.000000 978.000000"
 preserveAspectRatio="xMidYMid meet">

<g transform="translate(0.000000,978.000000) scale(0.100000,-0.100000)"
fill="#000000" stroke="none">
<path d="M8174 9769 c-29 -4 -74 -19 -101 -33 -36 -20 -780 -759 -2760 -2739
-2176 -2176 -2716 -2722 -2736 -2762 -13 -27 -160 -457 -326 -955 -280 -842
-301 -911 -301 -975 0 -120 66 -226 175 -283 41 -21 64 -26 130 -26 79 -1 94
4 1003 308 857 286 926 311 980 351 31 24 1268 1255 2748 2736 2992 2996 2737
2727 2738 2874 2 138 36 97 -678 813 -438 439 -654 649 -683 663 -53 26 -124
36 -189 28z m421 -1129 l370 -370 -373 -373 -372 -372 -372 372 -371 371 368
371 c203 204 371 371 374 371 4 0 173 -167 376 -370z m-1193 -1187 c203 -203
368 -372 368 -378 0 -5 -874 -883 -1942 -1952 l-1942 -1943 -556 -185 c-305
-102 -558 -185 -562 -185 -3 0 76 249 178 552 l184 552 1947 1952 c1072 1073
1950 1952 1953 1952 3 1 170 -163 372 -365z"/>
<path d="M1225 9479 c-108 -12 -258 -51 -363 -95 -434 -179 -739 -553 -838
-1029 -18 -87 -19 -200 -19 -3610 l0 -3520 23 -104 c129 -575 552 -989 1122
-1098 91 -17 265 -18 3750 -18 3472 0 3660 1 3750 18 570 108 995 523 1122
1100 l23 102 0 1720 0 1720 -21 46 c-52 111 -150 179 -270 187 -106 7 -163
-15 -239 -92 -104 -105 -95 73 -95 -1815 -1 -1772 1 -1718 -53 -1863 -38 -105
-84 -175 -177 -268 -95 -96 -176 -147 -295 -188 l-80 -27 -3665 0 -3665 0 -80
27 c-247 84 -432 284 -501 543 -18 68 -19 178 -19 3530 0 3287 1 3463 18 3530
68 268 277 482 544 558 l78 22 1805 5 1805 5 50 27 c85 45 136 111 161 209 37
144 -40 296 -181 361 l-50 23 -1780 1 c-979 1 -1816 -2 -1860 -7z"/>
</g>
</svg>
