<?xml version="1.0" standalone="no"?>
<!DOCTYPE svg PUBLIC "-//W3C//DTD SVG 20010904//EN"
 "http://www.w3.org/TR/2001/REC-SVG-20010904/DTD/svg10.dtd">
<svg version="1.0" xmlns="http://www.w3.org/2000/svg"
 width="3264.000000pt" height="3264.000000pt" viewBox="0 0 3264.000000 3264.000000"
 preserveAspectRatio="xMidYMid meet">

<g transform="translate(0.000000,3264.000000) scale(0.100000,-0.100000)"
fill="#000000" stroke="none">
<path d="M15323 27165 c-535 -725 -1167 -1504 -1748 -2155 -136 -152 -276
-305 -545 -595 -102 -110 -204 -220 -227 -245 -23 -24 -44 -43 -47 -40 -7 8
12 280 34 480 21 190 56 395 96 558 14 57 24 106 21 108 -10 10 -236 -287
-299 -392 -28 -46 -42 -89 -63 -189 -47 -222 -75 -275 -169 -318 -29 -14 -63
-38 -75 -55 -89 -126 -147 -349 -176 -682 -14 -166 -16 -176 -41 -200 l-26
-25 6 110 c17 273 72 778 112 1020 8 50 35 194 60 322 l46 232 -67 111 c-37
61 -71 113 -76 116 -9 5 -15 -14 -63 -216 -126 -527 -215 -1168 -244 -1766 -8
-151 -8 -151 -41 -192 -18 -23 -37 -42 -42 -42 -11 0 -11 55 1 360 22 542 57
896 135 1370 22 135 23 161 17 375 l-7 230 -23 -67 c-37 -107 -47 -96 -67 73
-19 169 -45 190 -104 87 -36 -62 -121 -316 -147 -435 -9 -46 -20 -83 -23 -83
-3 0 -26 27 -49 60 -27 37 -54 63 -69 66 -25 7 -25 8 -19 73 4 36 14 106 22
155 15 86 14 91 -3 105 -11 9 -47 49 -82 89 -35 39 -67 72 -71 72 -11 0 -35
-83 -76 -264 -18 -82 -34 -150 -36 -151 -2 -2 -16 -1 -31 2 -28 6 -29 7 -22
52 4 25 24 116 46 201 21 85 39 158 39 163 0 22 -150 -7 -230 -45 -90 -44
-171 -142 -208 -253 l-20 -60 -89 -8 c-446 -38 -619 -79 -883 -212 -250 -125
-543 -374 -720 -610 -28 -38 -58 -82 -66 -97 l-14 -27 98 -58 c76 -45 105 -57
132 -55 31 2 45 -6 114 -67 161 -144 228 -136 460 53 369 303 803 622 822 604
2 -3 -37 -39 -88 -81 -322 -262 -606 -499 -711 -593 -71 -64 -97 -77 -223
-110 -89 -24 -194 -67 -194 -79 0 -5 96 -143 110 -158 4 -4 23 1 43 13 46 27
78 36 222 61 66 11 139 29 161 39 23 10 134 88 248 174 113 86 209 156 213
156 23 0 -342 -317 -427 -371 -14 -9 -69 -32 -123 -53 -114 -42 -168 -68 -186
-90 -17 -20 14 -122 40 -129 10 -3 32 -34 49 -71 34 -71 60 -96 100 -96 33 0
43 7 255 185 268 225 448 365 469 365 3 0 6 -11 6 -25 0 -19 -23 -42 -102
-107 -57 -45 -133 -110 -169 -143 -36 -33 -106 -97 -156 -143 -109 -98 -153
-172 -153 -256 0 -47 5 -57 60 -126 33 -41 64 -76 70 -78 5 -2 56 36 112 85
135 116 256 216 291 238 l27 17 0 -30 c0 -27 -21 -49 -177 -188 -98 -86 -185
-163 -193 -171 -13 -12 0 -28 102 -127 64 -63 126 -117 137 -121 13 -4 42 3
77 19 31 14 57 26 59 26 1 0 5 -75 8 -167 8 -196 70 -1579 92 -2023 8 -168 22
-476 30 -685 8 -209 22 -528 30 -710 43 -962 83 -2078 125 -3445 33 -1086 44
-1510 39 -1515 -3 -2 -84 0 -180 6 -292 17 -1322 23 -1604 10 -473 -23 -535
-28 -555 -46 -35 -31 -73 -136 -78 -212 -8 -119 -14 -112 266 -266 297 -163
677 -358 977 -500 207 -98 920 -418 1121 -502 l92 -38 6 -186 c4 -102 11 -442
16 -756 18 -1024 99 -5586 110 -6160 36 -1883 37 -1914 65 -1962 28 -48 108
-87 175 -88 76 0 141 38 164 96 50 124 298 1182 470 1999 394 1879 718 4077
877 5940 17 206 33 377 35 379 3 3 185 -54 407 -127 1238 -404 2644 -800 3755
-1057 129 -30 237 -57 240 -59 2 -3 -34 -58 -80 -123 -400 -557 -1007 -1463
-1360 -2028 -261 -419 -288 -466 -288 -506 0 -84 145 -229 230 -229 67 0 1252
813 1805 1239 767 590 1502 1210 2200 1855 544 503 1422 1378 1904 1896 943
1014 1939 2202 2756 3285 103 138 194 256 201 264 10 11 34 -3 146 -86 308
-231 627 -460 836 -599 213 -141 225 -148 272 -147 108 2 213 119 197 220 -7
44 27 0 -523 670 -255 311 -464 571 -464 579 0 7 -7 14 -15 16 -8 2 -90 96
-182 209 -93 113 -224 273 -293 355 -69 82 -244 295 -388 474 -143 179 -361
449 -483 600 -668 827 -2551 3193 -2984 3750 -451 580 -650 839 -1196 1550
-223 291 -1063 1399 -1323 1745 -116 154 -284 375 -375 490 -90 116 -174 227
-188 248 -13 21 -31 37 -42 37 -24 0 -976 -197 -1017 -210 -16 -6 -62 -16
-102 -24 -59 -11 -72 -11 -72 -1 0 8 -10 15 -22 17 -28 4 -52 50 -70 131 -6
31 -14 57 -18 57 -3 0 -23 -25 -45 -55 -22 -30 -44 -54 -50 -55 -5 0 -64 54
-131 121 l-121 120 -22 -108 c-12 -59 -25 -137 -29 -173 l-8 -65 -146 445
c-81 245 -161 490 -178 545 -18 55 -36 104 -40 109 -5 4 -84 -94 -177 -219z
m444 -742 c34 -79 40 -114 8 -43 -10 22 -22 40 -26 40 -4 0 -86 -100 -181
-222 -379 -490 -814 -1022 -1097 -1343 -285 -322 -734 -784 -1071 -1099 -217
-204 -621 -566 -631 -566 -4 0 -9 14 -11 30 -4 28 3 37 101 117 732 603 1728
1695 2701 2960 85 111 160 202 165 202 6 0 25 -34 42 -76z m269 -93 c-28 -11
-56 -25 -63 -33 -7 -7 -26 -51 -42 -97 -16 -47 -30 -78 -30 -69 -1 17 41 145
58 178 12 21 56 39 101 40 18 0 11 -6 -24 -19z m-1 -115 c-30 -36 -66 -83 -81
-105 -34 -52 -41 -51 -12 1 21 36 133 169 144 169 3 0 -20 -29 -51 -65z m793
-134 c158 -65 297 -122 310 -126 12 -3 30 -19 40 -33 121 -189 2050 -2585
2517 -3127 66 -77 192 -225 280 -330 87 -104 265 -313 394 -464 278 -322 303
-352 296 -359 -9 -10 -63 49 -237 255 -93 112 -220 260 -281 330 -223 254
-966 1123 -1137 1328 -95 116 -204 246 -240 290 -168 202 -431 528 -1013 1255
l-629 785 -306 158 c-280 144 -348 181 -299 164 10 -4 147 -60 305 -126z
m-461 104 c-12 -29 -82 -115 -94 -115 -17 0 -17 -16 1 -23 7 -3 16 -18 20 -32
4 -15 17 -42 29 -59 29 -42 741 -966 899 -1167 68 -85 218 -276 334 -425 338
-431 1026 -1279 1423 -1754 194 -233 192 -231 157 -200 -50 45 -399 459 -991
1180 -318 388 -667 811 -775 940 -265 317 -402 489 -626 785 -105 138 -241
315 -303 395 -106 136 -171 243 -171 282 0 42 -26 17 -137 -135 -137 -185
-662 -844 -864 -1082 -446 -525 -1038 -1169 -1614 -1755 -144 -146 -333 -344
-421 -440 -165 -179 -388 -400 -405 -400 -5 0 -9 29 -9 63 l0 64 193 184 c471
450 1085 1073 1450 1471 257 280 791 892 936 1073 36 44 90 109 121 145 135
156 412 509 679 865 58 77 110 143 115 147 6 4 22 8 35 8 16 0 21 -4 18 -15z
m480 -428 c84 -93 201 -232 260 -310 59 -78 140 -184 180 -235 40 -51 73 -96
73 -100 0 -4 -6 0 -13 9 -7 8 -50 62 -97 120 -47 57 -146 178 -220 269 -74 91
-213 253 -309 360 -243 271 -248 278 -131 160 58 -58 173 -181 257 -273z
m-958 310 c36 -15 31 -27 -10 -27 -24 0 -42 -17 -116 -112 -902 -1151 -1398
-1702 -2218 -2464 -197 -183 -754 -684 -760 -684 -3 0 -5 29 -5 64 l0 64 168
143 c932 800 1372 1224 1919 1849 233 267 605 721 896 1093 37 48 73 87 81 87
8 0 28 -6 45 -13z m396 -656 c-8 -16 -20 -31 -26 -33 -9 -3 -9 -10 0 -27 21
-39 355 -483 525 -699 184 -234 211 -270 203 -278 -3 -3 -54 58 -114 137 -59
78 -162 210 -228 292 -326 408 -385 486 -392 520 -3 15 -8 27 -12 27 -3 0 -22
-23 -41 -52 -85 -126 -251 -337 -489 -623 -645 -774 -1391 -1580 -2089 -2259
-375 -365 -753 -716 -764 -710 -12 8 -10 58 5 76 6 8 80 77 162 153 1083 998
2214 2209 3034 3250 174 220 205 254 229 255 10 0 9 -7 -3 -29z m224 -1131
c725 -870 999 -1188 1551 -1800 713 -791 1180 -1282 1979 -2080 826 -826 1243
-1220 1951 -1845 445 -392 662 -580 808 -700 39 -32 72 -62 72 -65 0 -3 -46
-57 -101 -120 -1562 -1770 -3006 -3514 -4104 -4954 l-159 -208 -16 58 c-21 76
-43 110 -83 124 -793 289 -1884 622 -2732 834 -917 228 -1914 430 -2653 537
l-84 12 6 86 c3 47 13 250 21 451 45 1103 59 1894 51 2915 -8 1132 -29 1823
-96 3130 -23 458 -27 582 -17 591 6 7 111 96 232 200 1030 879 2164 2020 2927
2944 52 63 111 132 131 153 20 21 37 43 37 49 0 20 34 -18 279 -312z m-5113
-1509 c-14 -14 -29 -22 -32 -18 -4 4 -12 208 -17 454 l-9 448 33 70 34 70 8
-499 8 -500 -25 -25z m-396 352 c0 -68 27 -717 35 -848 73 -1178 117 -2037
140 -2740 8 -253 19 -579 25 -725 17 -406 30 -1161 34 -1940 5 -755 5 -764
-29 585 -8 347 -20 713 -25 815 -5 102 -14 340 -20 530 -30 1008 -42 1243
-130 2665 -38 611 -74 1202 -80 1315 -5 113 -12 237 -14 275 -4 64 -2 72 22
98 14 15 29 27 34 27 4 0 8 -26 8 -57z m1095 -342 c0 -169 -1 -174 -22 -188
l-23 -15 0 191 0 192 23 -3 c22 -3 22 -4 22 -177z m-307 -438 c-45 -49 -48
-39 -48 189 l0 212 33 34 32 33 3 -222 c2 -217 2 -223 -20 -246z m-344 120 c4
-71 16 -254 26 -408 11 -154 26 -419 35 -590 8 -170 20 -377 25 -460 6 -82 17
-312 25 -510 8 -198 22 -486 30 -640 21 -382 62 -1832 75 -2595 17 -1079 8
-3025 -15 -3025 -7 0 -12 421 -17 1230 -8 1601 -30 2566 -93 4110 -33 798
-100 2022 -150 2725 -20 273 -20 269 8 280 43 17 44 15 51 -117z m649 -308
l-28 -35 -7 87 -7 88 32 30 32 29 3 -82 c3 -77 1 -84 -25 -117z m-274 -340 c1
-121 6 -299 11 -395 5 -96 17 -296 25 -445 46 -838 70 -1475 100 -2670 13
-495 19 -1452 8 -1305 -1 25 -12 394 -23 820 -25 988 -75 2169 -130 3070 -35
577 -39 651 -46 903 l-7 247 24 26 24 26 6 -29 c4 -15 7 -127 8 -248z m331
-127 c0 -18 7 -136 15 -263 48 -752 98 -1845 125 -2755 6 -195 15 -512 21
-705 6 -192 13 -1128 16 -2078 l5 -1729 -21 4 -20 3 -5 1040 c-8 1736 -41
3127 -111 4710 -26 577 -79 1592 -90 1710 -6 58 -5 61 22 77 39 24 43 23 43
-14z m11045 -4168 c17 -19 14 -24 -126 -197 -550 -682 -1461 -1770 -1809
-2164 -85 -96 -240 -274 -345 -394 -242 -279 -448 -515 -595 -680 -63 -72
-134 -153 -157 -180 -23 -28 -42 -45 -43 -40 0 6 75 96 166 200 91 105 259
302 372 439 114 137 310 371 436 520 638 754 1272 1524 1884 2289 100 125 186
227 191 227 4 0 16 -9 26 -20z m337 -285 c-15 -24 -838 -1029 -962 -1175 -72
-85 -292 -348 -488 -585 -324 -392 -1141 -1338 -1617 -1875 -105 -118 -262
-296 -349 -395 -197 -223 -655 -724 -755 -825 -94 -95 -93 -94 330 390 744
851 1909 2221 2610 3070 798 968 917 1115 1024 1275 44 66 93 137 109 157 l28
37 38 -32 c21 -17 35 -37 32 -42z m344 -260 l39 -34 -551 -548 c-567 -563
-604 -602 -959 -1028 -535 -639 -1454 -1699 -1578 -1820 -43 -42 -20 -12 124
155 68 80 169 199 224 265 54 66 181 215 280 330 214 248 757 899 1009 1210
276 340 421 504 746 845 283 296 503 531 564 603 28 31 53 57 56 57 4 0 24
-16 46 -35z m255 -196 c21 -17 39 -34 39 -38 0 -4 -20 -17 -44 -28 -68 -33
-229 -169 -367 -310 -214 -218 -369 -392 -738 -833 -751 -898 -1248 -1481
-1781 -2090 -152 -173 -323 -369 -380 -435 -57 -66 -154 -176 -215 -245 -61
-69 -200 -226 -310 -350 -303 -342 -737 -813 -1059 -1150 -157 -165 -94 -81
97 127 185 202 282 312 417 468 52 61 266 306 475 545 210 239 475 546 591
681 115 135 382 448 594 695 492 573 789 923 1280 1509 446 533 531 631 726
837 151 159 627 646 633 647 2 1 21 -13 42 -30z m-9556 -3448 c812 -200 1475
-373 2765 -721 674 -183 1009 -276 1017 -283 2 -3 -6 -16 -19 -31 l-23 -26
-335 94 c-184 52 -659 187 -1055 299 -666 190 -839 239 -1235 349 -216 60
-609 166 -1022 275 -203 53 -368 100 -368 104 0 4 24 1 53 -6 28 -7 129 -31
222 -54z m-1430 -60 c116 -27 327 -77 470 -111 313 -74 1554 -385 1855 -465
522 -138 1163 -311 1480 -399 419 -117 579 -157 725 -181 83 -14 184 -34 225
-45 45 -12 108 -20 156 -20 44 0 84 -3 87 -6 8 -8 -82 -124 -95 -124 -16 0
-286 74 -623 170 -1000 286 -2390 663 -3865 1051 -234 61 -478 125 -542 142
-65 18 -118 35 -118 40 0 5 8 6 18 3 9 -3 112 -28 227 -55z m-860 -471 c3 -5
1 -10 -4 -10 -6 0 -11 5 -11 10 0 6 2 10 4 10 3 0 8 -4 11 -10z m1547 -369
c524 -132 1050 -265 1168 -296 348 -91 952 -250 1275 -336 321 -85 543 -157
775 -249 127 -51 455 -188 533 -223 l28 -12 -29 -34 -28 -34 -60 40 c-219 149
-569 264 -1829 603 -77 21 -273 74 -435 118 -385 105 -1713 457 -2175 577 -99
26 -186 51 -192 57 -17 14 -16 28 2 28 8 0 443 -108 967 -239z m505 193 c312
-71 1787 -455 2170 -565 191 -54 394 -125 649 -224 201 -79 543 -207 599 -225
64 -20 64 -21 12 -83 l-24 -29 -89 37 c-49 20 -206 89 -349 152 -323 144 -631
268 -795 321 -169 55 -1281 364 -1605 447 -235 60 -634 172 -644 181 -7 7 5 5
76 -12z m-2073 -651 c-4 -131 -10 -254 -15 -273 -5 -22 -7 22 -4 119 3 85 5
207 5 273 0 72 4 118 10 118 7 0 8 -81 4 -237z"/>
<path d="M16342 26727 c-30 -14 -58 -69 -67 -130 -14 -91 0 -86 78 24 45 65
69 107 62 111 -14 11 -46 9 -73 -5z"/>
</g>
</svg>
