<svg width="512" height="512" version="1.1" xmlns="http://www.w3.org/2000/svg" desc="Created with imagetracer.js version 1.2.6" ><path fill="rgb(0,0,0)" stroke="rgb(0,0,0)" stroke-width="1" opacity="0.611764705882353" d="M 212.5 74 L 300 74.5 L 212.5 75 L 212.5 74 Z " /><path fill="rgb(0,0,0)" stroke="rgb(0,0,0)" stroke-width="1" opacity="0.611764705882353" d="M 201.5 77 L 200.5 79 L 201.5 77 Z " /><path fill="rgb(0,0,0)" stroke="rgb(0,0,0)" stroke-width="1" opacity="0.611764705882353" d="M 312.5 78 L 313.5 80 L 312.5 78 Z " /><path fill="rgb(0,0,0)" stroke="rgb(0,0,0)" stroke-width="1" opacity="0.611764705882353" d="M 198.5 79 L 197.5 81 L 198.5 79 Z " /><path fill="rgb(0,0,0)" stroke="rgb(0,0,0)" stroke-width="1" opacity="0.611764705882353" d="M 316.5 81 L 319.5 85 L 316.5 81 Z " /><path fill="rgb(0,0,0)" stroke="rgb(0,0,0)" stroke-width="1" opacity="0.611764705882353" d="M 194.5 82 L 192.5 85 L 194.5 82 Z " /><path fill="rgb(0,0,0)" stroke="rgb(0,0,0)" stroke-width="1" opacity="0.611764705882353" d="M 80.5 96 L 83 96.5 L 80.5 97 L 80.5 96 Z " /><path fill="rgb(0,0,0)" stroke="rgb(0,0,0)" stroke-width="1" opacity="0.611764705882353" d="M 109.5 96 L 112 96.5 L 109.5 97 L 109.5 96 Z " /><path fill="rgb(0,0,0)" stroke="rgb(0,0,0)" stroke-width="1" opacity="0.611764705882353" d="M 300.5 96 L 303 97.5 L 301.5 97 L 300.5 96 Z " /><path fill="rgb(0,0,0)" stroke="rgb(0,0,0)" stroke-width="1" opacity="0.611764705882353" d="M 209.5 97 L 208.5 99 L 209.5 97 Z " /><path fill="rgb(0,0,0)" stroke="rgb(0,0,0)" stroke-width="1" opacity="0.611764705882353" d="M 73.5 99 L 72.5 101 L 73.5 99 Z " /><path fill="rgb(0,0,0)" stroke="rgb(0,0,0)" stroke-width="1" opacity="0.611764705882353" d="M 118.5 99 L 119.5 101 L 118.5 99 Z " /><path fill="rgb(0,0,0)" stroke="rgb(0,0,0)" stroke-width="1" opacity="0.611764705882353" d="M 68.5 104 L 67.5 106 L 68.5 104 Z " /><path fill="rgb(0,0,0)" stroke="rgb(0,0,0)" stroke-width="1" opacity="0.611764705882353" d="M 123.5 104 L 124.5 106 L 123.5 104 Z " /><path fill="rgb(0,0,0)" stroke="rgb(0,0,0)" stroke-width="1" opacity="0.611764705882353" d="M 168.5 108 L 166.5 111 L 168.5 108 Z " /><path fill="rgb(0,0,0)" stroke="rgb(0,0,0)" stroke-width="1" opacity="0.611764705882353" d="M 343.5 108 L 345.5 111 L 343.5 108 Z " /><path fill="rgb(0,0,0)" stroke="rgb(0,0,0)" stroke-width="1" opacity="0.611764705882353" d="M 347.5 111 L 348.5 113 L 347.5 111 Z " /><path fill="rgb(0,0,0)" stroke="rgb(0,0,0)" stroke-width="1" opacity="0.611764705882353" d="M 64.5 112 L 65 114.5 L 64 114.5 L 64.5 112 Z " /><path fill="rgb(0,0,0)" stroke="rgb(0,0,0)" stroke-width="1" opacity="0.611764705882353" d="M 127.5 112 L 128 114.5 L 127 114.5 L 127.5 112 Z " /><path fill="rgb(0,0,0)" stroke="rgb(0,0,0)" stroke-width="1" opacity="0.611764705882353" d="M 48.5 117 L 64 117.5 L 48.5 118 L 48.5 117 Z " /><path fill="rgb(0,0,0)" stroke="rgb(0,0,0)" stroke-width="1" opacity="0.611764705882353" d="M 128.5 117 L 150 117.5 L 128.5 118 L 128.5 117 Z " /><path fill="rgb(0,0,0)" stroke="rgb(0,0,0)" stroke-width="1" opacity="0.611764705882353" d="M 362.5 117 L 464 117.5 L 362.5 118 L 362.5 117 Z " /><path fill="rgb(0,0,0)" stroke="rgb(0,0,0)" stroke-width="1" opacity="0.611764705882353" d="M 183.5 123 L 180.5 127 L 183.5 123 Z " /><path fill="rgb(0,0,0)" stroke="rgb(0,0,0)" stroke-width="1" opacity="0.611764705882353" d="M 29.5 124 L 28.5 126 L 29.5 124 Z " /><path fill="rgb(0,0,0)" stroke="rgb(0,0,0)" stroke-width="1" opacity="0.611764705882353" d="M 329.5 124 L 331.5 127 L 329.5 124 Z " /><path fill="rgb(0,0,0)" stroke="rgb(0,0,0)" stroke-width="1" opacity="0.611764705882353" d="M 482.5 124 L 483.5 126 L 482.5 124 Z " /><path fill="rgb(0,0,0)" stroke="rgb(0,0,0)" stroke-width="1" opacity="0.611764705882353" d="M 25.5 127 L 21.5 132 L 25.5 127 Z " /><path fill="rgb(0,0,0)" stroke="rgb(0,0,0)" stroke-width="1" opacity="0.611764705882353" d="M 486.5 127 L 490.5 132 L 486.5 127 Z " /><path fill="rgb(0,0,0)" stroke="rgb(0,0,0)" stroke-width="1" opacity="0.611764705882353" d="M 51.5 138 L 153 138.5 L 51.5 139 L 51.5 138 Z " /><path fill="rgb(0,0,0)" stroke="rgb(0,0,0)" stroke-width="1" opacity="0.611764705882353" d="M 359.5 138 L 461 138.5 L 359.5 139 L 359.5 138 Z " /><path fill="rgb(0,0,0)" stroke="rgb(0,0,0)" stroke-width="1" opacity="0.611764705882353" d="M 39.5 143 L 36.5 147 L 39.5 143 Z " /><path fill="rgb(0,0,0)" stroke="rgb(0,0,0)" stroke-width="1" opacity="0.611764705882353" d="M 472.5 143 L 475.5 147 L 472.5 143 Z " /><path fill="rgb(0,0,0)" stroke="rgb(0,0,0)" stroke-width="1" opacity="0.611764705882353" d="M 35.5 148 L 34.5 150 L 35.5 148 Z " /><path fill="rgb(0,0,0)" stroke="rgb(0,0,0)" stroke-width="1" opacity="0.611764705882353" d="M 476.5 148 L 477.5 150 L 476.5 148 Z " /><path fill="rgb(0,0,0)" stroke="rgb(0,0,0)" stroke-width="1" opacity="0.611764705882353" d="M 32.5 154 L 33 156.5 L 32 156.5 L 32.5 154 Z " /><path fill="rgb(0,0,0)" stroke="rgb(0,0,0)" stroke-width="1" opacity="0.611764705882353" d="M 10.5 159 L 11 395.5 L 10 395.5 L 10.5 159 Z " /><path fill="rgb(0,0,0)" stroke="rgb(0,0,0)" stroke-width="1" opacity="0.611764705882353" d="M 501.5 159 L 502 395.5 L 501 395.5 L 501.5 159 Z " /><path fill="rgb(0,0,0)" stroke="rgb(0,0,0)" stroke-width="1" opacity="0.611764705882353" d="M 243.5 160 L 249 160.5 L 243.5 161 L 243.5 160 Z " /><path fill="rgb(0,0,0)" stroke="rgb(0,0,0)" stroke-width="1" opacity="0.611764705882353" d="M 263.5 160 L 269 160.5 L 263.5 161 L 263.5 160 Z " /><path fill="rgb(0,0,0)" stroke="rgb(0,0,0)" stroke-width="1" opacity="0.611764705882353" d="M 58.5 161 L 57.5 163 L 58.5 161 Z " /><path fill="rgb(0,0,0)" stroke="rgb(0,0,0)" stroke-width="1" opacity="0.611764705882353" d="M 236.5 161 L 239 161.5 L 236.5 162 L 236.5 161 Z " /><path fill="rgb(0,0,0)" stroke="rgb(0,0,0)" stroke-width="1" opacity="0.611764705882353" d="M 273.5 161 L 276 161.5 L 273.5 162 L 273.5 161 Z " /><path fill="rgb(0,0,0)" stroke="rgb(0,0,0)" stroke-width="1" opacity="0.611764705882353" d="M 113.5 162 L 115.5 165 L 113.5 162 Z " /><path fill="rgb(0,0,0)" stroke="rgb(0,0,0)" stroke-width="1" opacity="0.611764705882353" d="M 55.5 164 L 54.5 166 L 55.5 164 Z " /><path fill="rgb(0,0,0)" stroke="rgb(0,0,0)" stroke-width="1" opacity="0.611764705882353" d="M 53.5 168 L 54 194.5 L 53 194.5 L 53.5 168 Z " /><path fill="rgb(0,0,0)" stroke="rgb(0,0,0)" stroke-width="1" opacity="0.611764705882353" d="M 117.5 170 L 118 191.5 L 117 191.5 L 117.5 170 Z " /><path fill="rgb(0,0,0)" stroke="rgb(0,0,0)" stroke-width="1" opacity="0.611764705882353" d="M 197.5 175 L 196.5 177 L 197.5 175 Z " /><path fill="rgb(0,0,0)" stroke="rgb(0,0,0)" stroke-width="1" opacity="0.611764705882353" d="M 314.5 175 L 315.5 177 L 314.5 175 Z " /><path fill="rgb(0,0,0)" stroke="rgb(0,0,0)" stroke-width="1" opacity="0.611764705882353" d="M 192.5 178 L 191.5 180 L 192.5 178 Z " /><path fill="rgb(0,0,0)" stroke="rgb(0,0,0)" stroke-width="1" opacity="0.611764705882353" d="M 319.5 178 L 320.5 180 L 319.5 178 Z " /><path fill="rgb(0,0,0)" stroke="rgb(0,0,0)" stroke-width="1" opacity="0.611764705882353" d="M 189.5 180 L 188.5 182 L 189.5 180 Z " /><path fill="rgb(0,0,0)" stroke="rgb(0,0,0)" stroke-width="1" opacity="0.611764705882353" d="M 322.5 180 L 323.5 182 L 322.5 180 Z " /><path fill="rgb(0,0,0)" stroke="rgb(0,0,0)" stroke-width="1" opacity="0.611764705882353" d="M 246.5 181 L 266 181.5 L 246.5 182 L 246.5 181 Z " /><path fill="rgb(0,0,0)" stroke="rgb(0,0,0)" stroke-width="1" opacity="0.611764705882353" d="M 239.5 182 L 242 182.5 L 239.5 183 L 239.5 182 Z " /><path fill="rgb(0,0,0)" stroke="rgb(0,0,0)" stroke-width="1" opacity="0.611764705882353" d="M 270.5 182 L 273 182.5 L 270.5 183 L 270.5 182 Z " /><path fill="rgb(0,0,0)" stroke="rgb(0,0,0)" stroke-width="1" opacity="0.611764705882353" d="M 185.5 183 L 184.5 185 L 185.5 183 Z " /><path fill="rgb(0,0,0)" stroke="rgb(0,0,0)" stroke-width="1" opacity="0.611764705882353" d="M 234.5 183 L 237 183.5 L 234.5 184 L 234.5 183 Z " /><path fill="rgb(0,0,0)" stroke="rgb(0,0,0)" stroke-width="1" opacity="0.611764705882353" d="M 275.5 183 L 278 183.5 L 275.5 184 L 275.5 183 Z " /><path fill="rgb(0,0,0)" stroke="rgb(0,0,0)" stroke-width="1" opacity="0.611764705882353" d="M 326.5 183 L 327.5 185 L 326.5 183 Z " /><path fill="rgb(0,0,0)" stroke="rgb(0,0,0)" stroke-width="1" opacity="0.611764705882353" d="M 181.5 186 L 178.5 190 L 181.5 186 Z " /><path fill="rgb(0,0,0)" stroke="rgb(0,0,0)" stroke-width="1" opacity="0.611764705882353" d="M 330.5 186 L 333.5 190 L 330.5 186 Z " /><path fill="rgb(0,0,0)" stroke="rgb(0,0,0)" stroke-width="1" opacity="0.611764705882353" d="M 210.5 192 L 209.5 194 L 210.5 192 Z " /><path fill="rgb(0,0,0)" stroke="rgb(0,0,0)" stroke-width="1" opacity="0.611764705882353" d="M 301.5 192 L 302.5 194 L 301.5 192 Z " /><path fill="rgb(0,0,0)" stroke="rgb(0,0,0)" stroke-width="1" opacity="0.611764705882353" d="M 116.5 195 L 117 196.5 L 115 197.5 L 116.5 195 Z " /><path fill="rgb(0,0,0)" stroke="rgb(0,0,0)" stroke-width="1" opacity="0.611764705882353" d="M 205.5 195 L 204.5 197 L 205.5 195 Z " /><path fill="rgb(0,0,0)" stroke="rgb(0,0,0)" stroke-width="1" opacity="0.611764705882353" d="M 306.5 195 L 307.5 197 L 306.5 195 Z " /><path fill="rgb(0,0,0)" stroke="rgb(0,0,0)" stroke-width="1" opacity="0.611764705882353" d="M 309.5 197 L 310.5 199 L 309.5 197 Z " /><path fill="rgb(0,0,0)" stroke="rgb(0,0,0)" stroke-width="1" opacity="0.611764705882353" d="M 55.5 198 L 57.5 201 L 55.5 198 Z " /><path fill="rgb(0,0,0)" stroke="rgb(0,0,0)" stroke-width="1" opacity="0.611764705882353" d="M 168.5 199 L 165.5 203 L 168.5 199 Z " /><path fill="rgb(0,0,0)" stroke="rgb(0,0,0)" stroke-width="1" opacity="0.611764705882353" d="M 199.5 199 L 198.5 201 L 199.5 199 Z " /><path fill="rgb(0,0,0)" stroke="rgb(0,0,0)" stroke-width="1" opacity="0.611764705882353" d="M 312.5 199 L 313.5 201 L 312.5 199 Z " /><path fill="rgb(0,0,0)" stroke="rgb(0,0,0)" stroke-width="1" opacity="0.611764705882353" d="M 343.5 199 L 346.5 203 L 343.5 199 Z " /><path fill="rgb(0,0,0)" stroke="rgb(0,0,0)" stroke-width="1" opacity="0.611764705882353" d="M 61.5 202 L 109 202.5 L 61.5 203 L 61.5 202 Z " /><path fill="rgb(0,0,0)" stroke="rgb(0,0,0)" stroke-width="1" opacity="0.611764705882353" d="M 195.5 202 L 192.5 206 L 195.5 202 Z " /><path fill="rgb(0,0,0)" stroke="rgb(0,0,0)" stroke-width="1" opacity="0.611764705882353" d="M 316.5 202 L 319.5 206 L 316.5 202 Z " /><path fill="rgb(0,0,0)" stroke="rgb(0,0,0)" stroke-width="1" opacity="0.611764705882353" d="M 163.5 205 L 161.5 208 L 163.5 205 Z " /><path fill="rgb(0,0,0)" stroke="rgb(0,0,0)" stroke-width="1" opacity="0.611764705882353" d="M 348.5 205 L 349.5 207 L 348.5 205 Z " /><path fill="rgb(0,0,0)" stroke="rgb(0,0,0)" stroke-width="1" opacity="0.611764705882353" d="M 160.5 209 L 159.5 211 L 160.5 209 Z " /><path fill="rgb(0,0,0)" stroke="rgb(0,0,0)" stroke-width="1" opacity="0.611764705882353" d="M 351.5 209 L 352.5 211 L 351.5 209 Z " /><path fill="rgb(0,0,0)" stroke="rgb(0,0,0)" stroke-width="1" opacity="0.611764705882353" d="M 158.5 212 L 157.5 214 L 158.5 212 Z " /><path fill="rgb(0,0,0)" stroke="rgb(0,0,0)" stroke-width="1" opacity="0.611764705882353" d="M 353.5 212 L 354.5 214 L 353.5 212 Z " /><path fill="rgb(0,0,0)" stroke="rgb(0,0,0)" stroke-width="1" opacity="0.611764705882353" d="M 184.5 213 L 181.5 217 L 184.5 213 Z " /><path fill="rgb(0,0,0)" stroke="rgb(0,0,0)" stroke-width="1" opacity="0.611764705882353" d="M 327.5 213 L 330.5 217 L 327.5 213 Z " /><path fill="rgb(0,0,0)" stroke="rgb(0,0,0)" stroke-width="1" opacity="0.611764705882353" d="M 156.5 215 L 155.5 217 L 156.5 215 Z " /><path fill="rgb(0,0,0)" stroke="rgb(0,0,0)" stroke-width="1" opacity="0.611764705882353" d="M 355.5 215 L 356.5 217 L 355.5 215 Z " /><path fill="rgb(0,0,0)" stroke="rgb(0,0,0)" stroke-width="1" opacity="0.611764705882353" d="M 179.5 219 L 178.5 221 L 179.5 219 Z " /><path fill="rgb(0,0,0)" stroke="rgb(0,0,0)" stroke-width="1" opacity="0.611764705882353" d="M 332.5 219 L 333.5 221 L 332.5 219 Z " /><path fill="rgb(0,0,0)" stroke="rgb(0,0,0)" stroke-width="1" opacity="0.611764705882353" d="M 248.5 224 L 252 224.5 L 248.5 225 L 248.5 224 Z " /><path fill="rgb(0,0,0)" stroke="rgb(0,0,0)" stroke-width="1" opacity="0.611764705882353" d="M 261.5 224 L 265 224.5 L 261.5 225 L 261.5 224 Z " /><path fill="rgb(0,0,0)" stroke="rgb(0,0,0)" stroke-width="1" opacity="0.611764705882353" d="M 173.5 228 L 172.5 230 L 173.5 228 Z " /><path fill="rgb(0,0,0)" stroke="rgb(0,0,0)" stroke-width="1" opacity="0.611764705882353" d="M 338.5 228 L 339.5 230 L 338.5 228 Z " /><path fill="rgb(0,0,0)" stroke="rgb(0,0,0)" stroke-width="1" opacity="0.611764705882353" d="M 228.5 231 L 227.5 233 L 228.5 231 Z " /><path fill="rgb(0,0,0)" stroke="rgb(0,0,0)" stroke-width="1" opacity="0.611764705882353" d="M 283.5 231 L 284.5 233 L 283.5 231 Z " /><path fill="rgb(0,0,0)" stroke="rgb(0,0,0)" stroke-width="1" opacity="0.611764705882353" d="M 225.5 233 L 224.5 235 L 225.5 233 Z " /><path fill="rgb(0,0,0)" stroke="rgb(0,0,0)" stroke-width="1" opacity="0.611764705882353" d="M 286.5 233 L 287.5 235 L 286.5 233 Z " /><path fill="rgb(0,0,0)" stroke="rgb(0,0,0)" stroke-width="1" opacity="0.611764705882353" d="M 221.5 236 L 215.5 243 L 221.5 236 Z " /><path fill="rgb(0,0,0)" stroke="rgb(0,0,0)" stroke-width="1" opacity="0.611764705882353" d="M 290.5 236 L 296.5 243 L 290.5 236 Z " /><path fill="rgb(0,0,0)" stroke="rgb(0,0,0)" stroke-width="1" opacity="0.611764705882353" d="M 213.5 245 L 212.5 247 L 213.5 245 Z " /><path fill="rgb(0,0,0)" stroke="rgb(0,0,0)" stroke-width="1" opacity="0.611764705882353" d="M 251.5 245 L 261 245.5 L 251.5 246 L 251.5 245 Z " /><path fill="rgb(0,0,0)" stroke="rgb(0,0,0)" stroke-width="1" opacity="0.611764705882353" d="M 298.5 245 L 299.5 247 L 298.5 245 Z " /><path fill="rgb(0,0,0)" stroke="rgb(0,0,0)" stroke-width="1" opacity="0.611764705882353" d="M 269.5 248 L 272 249.5 L 270.5 249 L 269.5 248 Z " /><path fill="rgb(0,0,0)" stroke="rgb(0,0,0)" stroke-width="1" opacity="0.611764705882353" d="M 235.5 252 L 231.5 257 L 235.5 252 Z " /><path fill="rgb(0,0,0)" stroke="rgb(0,0,0)" stroke-width="1" opacity="0.611764705882353" d="M 276.5 252 L 280.5 257 L 276.5 252 Z " /><path fill="rgb(0,0,0)" stroke="rgb(0,0,0)" stroke-width="1" opacity="0.611764705882353" d="M 371.5 256 L 372 258.5 L 371 258.5 L 371.5 256 Z " /><path fill="rgb(0,0,0)" stroke="rgb(0,0,0)" stroke-width="1" opacity="0.611764705882353" d="M 161.5 259 L 162 261.5 L 161 261.5 L 161.5 259 Z " /><path fill="rgb(0,0,0)" stroke="rgb(0,0,0)" stroke-width="1" opacity="0.611764705882353" d="M 229.5 259 L 228.5 261 L 229.5 259 Z " /><path fill="rgb(0,0,0)" stroke="rgb(0,0,0)" stroke-width="1" opacity="0.611764705882353" d="M 282.5 259 L 283.5 261 L 282.5 259 Z " /><path fill="rgb(0,0,0)" stroke="rgb(0,0,0)" stroke-width="1" opacity="0.611764705882353" d="M 350.5 259 L 351 261.5 L 350 261.5 L 350.5 259 Z " /><path fill="rgb(0,0,0)" stroke="rgb(0,0,0)" stroke-width="1" opacity="0.611764705882353" d="M 139.5 262 L 140 265.5 L 139 265.5 L 139.5 262 Z " /><path fill="rgb(0,0,0)" stroke="rgb(0,0,0)" stroke-width="1" opacity="0.611764705882353" d="M 372.5 262 L 373 265.5 L 372 265.5 L 372.5 262 Z " /><path fill="rgb(0,0,0)" stroke="rgb(0,0,0)" stroke-width="1" opacity="0.611764705882353" d="M 160.5 265 L 161 269.5 L 160 269.5 L 160.5 265 Z " /><path fill="rgb(0,0,0)" stroke="rgb(0,0,0)" stroke-width="1" opacity="0.611764705882353" d="M 351.5 265 L 352 269.5 L 351 269.5 L 351.5 265 Z " /><path fill="rgb(0,0,0)" stroke="rgb(0,0,0)" stroke-width="1" opacity="0.611764705882353" d="M 203.5 267 L 204 269.5 L 203 269.5 L 203.5 267 Z " /><path fill="rgb(0,0,0)" stroke="rgb(0,0,0)" stroke-width="1" opacity="0.611764705882353" d="M 308.5 267 L 309 269.5 L 308 269.5 L 308.5 267 Z " /><path fill="rgb(0,0,0)" stroke="rgb(0,0,0)" stroke-width="1" opacity="0.611764705882353" d="M 224.5 270 L 225 272.5 L 224 272.5 L 224.5 270 Z " /><path fill="rgb(0,0,0)" stroke="rgb(0,0,0)" stroke-width="1" opacity="0.611764705882353" d="M 287.5 270 L 288 272.5 L 287 272.5 L 287.5 270 Z " /><path fill="rgb(0,0,0)" stroke="rgb(0,0,0)" stroke-width="1" opacity="0.611764705882353" d="M 138.5 276 L 139 278.5 L 138 278.5 L 138.5 276 Z " /><path fill="rgb(0,0,0)" stroke="rgb(0,0,0)" stroke-width="1" opacity="0.611764705882353" d="M 202.5 276 L 203 278.5 L 202 278.5 L 202.5 276 Z " /><path fill="rgb(0,0,0)" stroke="rgb(0,0,0)" stroke-width="1" opacity="0.611764705882353" d="M 160.5 285 L 161 289.5 L 160 289.5 L 160.5 285 Z " /><path fill="rgb(0,0,0)" stroke="rgb(0,0,0)" stroke-width="1" opacity="0.611764705882353" d="M 203.5 285 L 204 287.5 L 203 287.5 L 203.5 285 Z " /><path fill="rgb(0,0,0)" stroke="rgb(0,0,0)" stroke-width="1" opacity="0.611764705882353" d="M 308.5 285 L 309 287.5 L 308 287.5 L 308.5 285 Z " /><path fill="rgb(0,0,0)" stroke="rgb(0,0,0)" stroke-width="1" opacity="0.611764705882353" d="M 351.5 285 L 352 289.5 L 351 289.5 L 351.5 285 Z " /><path fill="rgb(0,0,0)" stroke="rgb(0,0,0)" stroke-width="1" opacity="0.611764705882353" d="M 372.5 288 L 373 292.5 L 372 292.5 L 372.5 288 Z " /><path fill="rgb(0,0,0)" stroke="rgb(0,0,0)" stroke-width="1" opacity="0.611764705882353" d="M 139.5 289 L 140 292.5 L 139 292.5 L 139.5 289 Z " /><path fill="rgb(0,0,0)" stroke="rgb(0,0,0)" stroke-width="1" opacity="0.611764705882353" d="M 161.5 293 L 162 295.5 L 161 295.5 L 161.5 293 Z " /><path fill="rgb(0,0,0)" stroke="rgb(0,0,0)" stroke-width="1" opacity="0.611764705882353" d="M 350.5 293 L 351 295.5 L 350 295.5 L 350.5 293 Z " /><path fill="rgb(0,0,0)" stroke="rgb(0,0,0)" stroke-width="1" opacity="0.611764705882353" d="M 229.5 295 L 230.5 297 L 229.5 295 Z " /><path fill="rgb(0,0,0)" stroke="rgb(0,0,0)" stroke-width="1" opacity="0.611764705882353" d="M 282.5 295 L 281.5 297 L 282.5 295 Z " /><path fill="rgb(0,0,0)" stroke="rgb(0,0,0)" stroke-width="1" opacity="0.611764705882353" d="M 140.5 296 L 141 298.5 L 140 298.5 L 140.5 296 Z " /><path fill="rgb(0,0,0)" stroke="rgb(0,0,0)" stroke-width="1" opacity="0.611764705882353" d="M 371.5 296 L 372 298.5 L 371 298.5 L 371.5 296 Z " /><path fill="rgb(0,0,0)" stroke="rgb(0,0,0)" stroke-width="1" opacity="0.611764705882353" d="M 236.5 302 L 237.5 304 L 236.5 302 Z " /><path fill="rgb(0,0,0)" stroke="rgb(0,0,0)" stroke-width="1" opacity="0.611764705882353" d="M 275.5 302 L 274.5 304 L 275.5 302 Z " /><path fill="rgb(0,0,0)" stroke="rgb(0,0,0)" stroke-width="1" opacity="0.611764705882353" d="M 213.5 309 L 214.5 311 L 213.5 309 Z " /><path fill="rgb(0,0,0)" stroke="rgb(0,0,0)" stroke-width="1" opacity="0.611764705882353" d="M 253.5 309 L 259 309.5 L 253.5 310 L 253.5 309 Z " /><path fill="rgb(0,0,0)" stroke="rgb(0,0,0)" stroke-width="1" opacity="0.611764705882353" d="M 298.5 309 L 297.5 311 L 298.5 309 Z " /><path fill="rgb(0,0,0)" stroke="rgb(0,0,0)" stroke-width="1" opacity="0.611764705882353" d="M 222.5 318 L 224.5 321 L 222.5 318 Z " /><path fill="rgb(0,0,0)" stroke="rgb(0,0,0)" stroke-width="1" opacity="0.611764705882353" d="M 289.5 318 L 287.5 321 L 289.5 318 Z " /><path fill="rgb(0,0,0)" stroke="rgb(0,0,0)" stroke-width="1" opacity="0.611764705882353" d="M 226.5 321 L 227.5 323 L 226.5 321 Z " /><path fill="rgb(0,0,0)" stroke="rgb(0,0,0)" stroke-width="1" opacity="0.611764705882353" d="M 285.5 321 L 284.5 323 L 285.5 321 Z " /><path fill="rgb(0,0,0)" stroke="rgb(0,0,0)" stroke-width="1" opacity="0.611764705882353" d="M 174.5 328 L 175.5 330 L 174.5 328 Z " /><path fill="rgb(0,0,0)" stroke="rgb(0,0,0)" stroke-width="1" opacity="0.611764705882353" d="M 337.5 328 L 336.5 330 L 337.5 328 Z " /><path fill="rgb(0,0,0)" stroke="rgb(0,0,0)" stroke-width="1" opacity="0.611764705882353" d="M 244.5 329 L 247 329.5 L 244.5 330 L 244.5 329 Z " /><path fill="rgb(0,0,0)" stroke="rgb(0,0,0)" stroke-width="1" opacity="0.611764705882353" d="M 265.5 329 L 268 329.5 L 265.5 330 L 265.5 329 Z " /><path fill="rgb(0,0,0)" stroke="rgb(0,0,0)" stroke-width="1" opacity="0.611764705882353" d="M 250.5 330 L 262 330.5 L 250.5 331 L 250.5 330 Z " /><path fill="rgb(0,0,0)" stroke="rgb(0,0,0)" stroke-width="1" opacity="0.611764705882353" d="M 176.5 331 L 177.5 333 L 176.5 331 Z " /><path fill="rgb(0,0,0)" stroke="rgb(0,0,0)" stroke-width="1" opacity="0.611764705882353" d="M 335.5 331 L 334.5 333 L 335.5 331 Z " /><path fill="rgb(0,0,0)" stroke="rgb(0,0,0)" stroke-width="1" opacity="0.611764705882353" d="M 179.5 335 L 180.5 337 L 179.5 335 Z " /><path fill="rgb(0,0,0)" stroke="rgb(0,0,0)" stroke-width="1" opacity="0.611764705882353" d="M 332.5 335 L 331.5 337 L 332.5 335 Z " /><path fill="rgb(0,0,0)" stroke="rgb(0,0,0)" stroke-width="1" opacity="0.611764705882353" d="M 154.5 336 L 155.5 338 L 154.5 336 Z " /><path fill="rgb(0,0,0)" stroke="rgb(0,0,0)" stroke-width="1" opacity="0.611764705882353" d="M 183.5 340 L 193.5 351 L 183.5 340 Z " /><path fill="rgb(0,0,0)" stroke="rgb(0,0,0)" stroke-width="1" opacity="0.611764705882353" d="M 328.5 340 L 319.5 350 L 328.5 340 Z " /><path fill="rgb(0,0,0)" stroke="rgb(0,0,0)" stroke-width="1" opacity="0.611764705882353" d="M 160.5 345 L 161.5 347 L 160.5 345 Z " /><path fill="rgb(0,0,0)" stroke="rgb(0,0,0)" stroke-width="1" opacity="0.611764705882353" d="M 351.5 345 L 350.5 347 L 351.5 345 Z " /><path fill="rgb(0,0,0)" stroke="rgb(0,0,0)" stroke-width="1" opacity="0.611764705882353" d="M 163.5 349 L 164.5 351 L 163.5 349 Z " /><path fill="rgb(0,0,0)" stroke="rgb(0,0,0)" stroke-width="1" opacity="0.611764705882353" d="M 348.5 349 L 347.5 351 L 348.5 349 Z " /><path fill="rgb(0,0,0)" stroke="rgb(0,0,0)" stroke-width="1" opacity="0.611764705882353" d="M 196.5 352 L 198.5 355 L 196.5 352 Z " /><path fill="rgb(0,0,0)" stroke="rgb(0,0,0)" stroke-width="1" opacity="0.611764705882353" d="M 315.5 352 L 313.5 355 L 315.5 352 Z " /><path fill="rgb(0,0,0)" stroke="rgb(0,0,0)" stroke-width="1" opacity="0.611764705882353" d="M 167.5 354 L 178.5 366 L 167.5 354 Z " /><path fill="rgb(0,0,0)" stroke="rgb(0,0,0)" stroke-width="1" opacity="0.611764705882353" d="M 344.5 354 L 333.5 366 L 344.5 354 Z " /><path fill="rgb(0,0,0)" stroke="rgb(0,0,0)" stroke-width="1" opacity="0.611764705882353" d="M 200.5 355 L 201.5 357 L 200.5 355 Z " /><path fill="rgb(0,0,0)" stroke="rgb(0,0,0)" stroke-width="1" opacity="0.611764705882353" d="M 311.5 355 L 310.5 357 L 311.5 355 Z " /><path fill="rgb(0,0,0)" stroke="rgb(0,0,0)" stroke-width="1" opacity="0.611764705882353" d="M 203.5 357 L 204.5 359 L 203.5 357 Z " /><path fill="rgb(0,0,0)" stroke="rgb(0,0,0)" stroke-width="1" opacity="0.611764705882353" d="M 308.5 357 L 307.5 359 L 308.5 357 Z " /><path fill="rgb(0,0,0)" stroke="rgb(0,0,0)" stroke-width="1" opacity="0.611764705882353" d="M 182.5 368 L 184.5 371 L 182.5 368 Z " /><path fill="rgb(0,0,0)" stroke="rgb(0,0,0)" stroke-width="1" opacity="0.611764705882353" d="M 329.5 368 L 327.5 371 L 329.5 368 Z " /><path fill="rgb(0,0,0)" stroke="rgb(0,0,0)" stroke-width="1" opacity="0.611764705882353" d="M 241.5 372 L 245 372.5 L 241.5 373 L 241.5 372 Z " /><path fill="rgb(0,0,0)" stroke="rgb(0,0,0)" stroke-width="1" opacity="0.611764705882353" d="M 267.5 372 L 271 372.5 L 267.5 373 L 267.5 372 Z " /><path fill="rgb(0,0,0)" stroke="rgb(0,0,0)" stroke-width="1" opacity="0.611764705882353" d="M 251.5 373 L 261 373.5 L 251.5 374 L 251.5 373 Z " /><path fill="rgb(0,0,0)" stroke="rgb(0,0,0)" stroke-width="1" opacity="0.611764705882353" d="M 190.5 374 L 191.5 376 L 190.5 374 Z " /><path fill="rgb(0,0,0)" stroke="rgb(0,0,0)" stroke-width="1" opacity="0.611764705882353" d="M 321.5 374 L 320.5 376 L 321.5 374 Z " /><path fill="rgb(0,0,0)" stroke="rgb(0,0,0)" stroke-width="1" opacity="0.611764705882353" d="M 238.5 393 L 242 393.5 L 238.5 394 L 238.5 393 Z " /><path fill="rgb(0,0,0)" stroke="rgb(0,0,0)" stroke-width="1" opacity="0.611764705882353" d="M 270.5 393 L 274 393.5 L 270.5 394 L 270.5 393 Z " /><path fill="rgb(0,0,0)" stroke="rgb(0,0,0)" stroke-width="1" opacity="0.611764705882353" d="M 247.5 394 L 265 394.5 L 247.5 395 L 247.5 394 Z " /><path fill="rgb(0,0,0)" stroke="rgb(0,0,0)" stroke-width="1" opacity="0.611764705882353" d="M 11.5 401 L 12 403.5 L 11 403.5 L 11.5 401 Z " /><path fill="rgb(0,0,0)" stroke="rgb(0,0,0)" stroke-width="1" opacity="0.611764705882353" d="M 500.5 401 L 501 403.5 L 500 403.5 L 500.5 401 Z " /><path fill="rgb(0,0,0)" stroke="rgb(0,0,0)" stroke-width="1" opacity="0.611764705882353" d="M 35.5 406 L 36.5 408 L 35.5 406 Z " /><path fill="rgb(0,0,0)" stroke="rgb(0,0,0)" stroke-width="1" opacity="0.611764705882353" d="M 476.5 406 L 475.5 408 L 476.5 406 Z " /><path fill="rgb(0,0,0)" stroke="rgb(0,0,0)" stroke-width="1" opacity="0.611764705882353" d="M 40.5 411 L 41.5 413 L 40.5 411 Z " /><path fill="rgb(0,0,0)" stroke="rgb(0,0,0)" stroke-width="1" opacity="0.611764705882353" d="M 471.5 411 L 470.5 413 L 471.5 411 Z " /><path fill="rgb(0,0,0)" stroke="rgb(0,0,0)" stroke-width="1" opacity="0.611764705882353" d="M 16.5 416 L 17.5 418 L 16.5 416 Z " /><path fill="rgb(0,0,0)" stroke="rgb(0,0,0)" stroke-width="1" opacity="0.611764705882353" d="M 18.5 419 L 20.5 422 L 18.5 419 Z " /><path fill="rgb(0,0,0)" stroke="rgb(0,0,0)" stroke-width="1" opacity="0.611764705882353" d="M 493.5 419 L 491.5 422 L 493.5 419 Z " /><path fill="rgb(0,0,0)" stroke="rgb(0,0,0)" stroke-width="1" opacity="0.611764705882353" d="M 26.5 427 L 28.5 430 L 26.5 427 Z " /><path fill="rgb(0,0,0)" stroke="rgb(0,0,0)" stroke-width="1" opacity="0.611764705882353" d="M 485.5 427 L 483.5 430 L 485.5 427 Z " /><path fill="rgb(0,0,0)" stroke="rgb(0,0,0)" stroke-width="1" opacity="0.611764705882353" d="M 30.5 430 L 31.5 432 L 30.5 430 Z " /><path fill="rgb(0,0,0)" stroke="rgb(0,0,0)" stroke-width="1" opacity="0.611764705882353" d="M 44.5 436 L 47 436.5 L 44.5 437 L 44.5 436 Z " /><path fill="rgb(0,0,0)" stroke="rgb(0,0,0)" stroke-width="1" opacity="0.611764705882353" d="M 465.5 436 L 468 436.5 L 465.5 437 L 465.5 436 Z " /><path fill="rgb(0,0,0)" stroke="rgb(0,0,0)" stroke-width="1" opacity="0.611764705882353" d="M 52.5 437 L 460 437.5 L 52.5 438 L 52.5 437 Z " /><path fill="rgb(0,0,0)" stroke="rgb(0,0,0)" stroke-width="1" opacity="0" d="M 0 0 L 512 0 L 512 512 L 0 512 L 0 0 Z M 213 74 L 202 77 L 195 82 L 192 86 L 170 108 L 159 115 L 153 117 L 128 117 Q 129 110 125 106 Q 121 98 112 96 L 81 96 L 74 99 Q 65 104 64 117 L 49 117 L 40 119 L 26 127 Q 18 134 13 145 L 10 160 L 10 396 L 11 397 L 12 408 L 18 420 L 32 432 L 41 436 L 52 437 L 53 438 L 460 438 L 461 437 L 472 436 L 484 430 Q 492 424 497 415 L 500 408 L 501 397 L 502 396 L 502 160 L 499 145 L 491 132 Q 481 120 464 117 L 360 117 Q 349 114 343 108 L 320 85 L 313 78 L 300 74 L 213 74 Z " /><path fill="rgb(0,0,0)" stroke="rgb(0,0,0)" stroke-width="1" opacity="0" d="M 212.5 96 L 299.5 96 L 331.5 127 L 350.5 137 L 359.5 139 L 463.5 139 Q 471.9 141.1 476 147.5 L 480 156.5 L 480 397.5 Q 478.1 406.1 472.5 411 L 461.5 416 L 50.5 416 Q 41.9 414.1 37 408.5 L 32 397.5 L 32 157.5 Q 33.7 146.7 41.5 142 L 48.5 139 L 152.5 139 L 161.5 137 L 180.5 127 L 212.5 96 Z M 61 160 L 59 161 L 53 169 L 53 195 L 55 199 L 62 203 L 109 203 L 112 202 L 117 197 L 118 192 L 118 171 L 116 165 L 110 160 L 61 160 Z M 244 160 L 224 164 L 210 169 Q 194 176 182 186 Q 159 204 147 233 L 141 252 L 139 263 L 139 276 L 138 277 L 140 299 L 147 323 Q 155 341 167 355 Q 179 369 197 379 L 225 391 L 248 395 L 274 394 L 297 388 Q 318 380 334 366 Q 353 349 364 325 L 371 304 L 373 293 L 373 279 L 374 278 L 373 276 L 372 257 L 367 238 Q 360 217 347 203 Q 330 181 303 169 L 276 161 Q 270 163 269 160 L 244 160 Z " /><path fill="rgb(0,0,0)" stroke="rgb(0,0,0)" stroke-width="1" opacity="0" d="M 242.5 182 L 269.5 182 L 286.5 186 Q 311 195 327 212.5 Q 339 225.5 346 243.5 L 351 262.5 L 352 284.5 L 348 305.5 L 341 322.5 Q 331.5 340 316.5 352 Q 302.1 364.1 281.5 370 L 266.5 373 L 245.5 373 L 230.5 370 L 208.5 361 Q 192.4 351.6 181 337.5 Q 169.8 324.2 164 305.5 L 160 284.5 L 160 270.5 L 161 269.5 L 162 256.5 L 168 238.5 Q 176.7 219.2 191.5 206 Q 210.6 187.6 242.5 182 Z M 249 224 Q 232 227 222 236 Q 211 244 206 258 L 203 268 L 203 276 L 202 277 L 203 288 L 206 298 L 213 310 Q 225 327 251 331 L 262 331 L 272 329 L 288 321 L 303 304 L 308 292 L 309 279 L 310 278 Q 308 274 309 268 L 306 258 L 297 243 Q 289 232 276 227 L 265 224 L 249 224 Z " /><path fill="rgb(0,0,0)" stroke="rgb(0,0,0)" stroke-width="1" opacity="0" d="M 248.5 246 L 263.5 246 L 266.5 247 Q 276.5 250.5 282 258.5 Q 288.8 266.2 288 281.5 Q 285.2 294.7 276.5 302 Q 268.3 310.3 250.5 309 Q 237.6 306.4 231 297.5 Q 223.5 289.5 224 273.5 Q 226.7 258.2 237.5 251 L 248.5 246 Z " /><path fill="rgb(0,0,0)" stroke="rgb(0,0,0)" stroke-width="1" opacity="0.996078431372549" d="M 208.5 75 L 303.5 75 L 314.5 80 L 345.5 111 L 358.5 117 L 362.5 118 L 466.5 118 Q 483.9 122.1 493 134.5 Q 498.7 142.3 501 153.5 L 501 400.5 Q 497.9 417.9 486.5 427 Q 478.3 434.8 464.5 437 L 47.5 437 Q 30.1 433.9 21 422.5 Q 13.2 414.3 11 400.5 L 11 153.5 Q 14.8 135.3 27.5 126 Q 34.8 120.3 45.5 118 L 64 118 L 65 110.5 L 71.5 101 L 78.5 97 L 83.5 96 L 108.5 96 Q 118 97.5 123 103.5 L 127 110.5 L 128 118 L 149.5 118 L 161.5 114 L 166.5 111 L 196.5 81 L 208.5 75 Z M 212 96 L 210 97 L 208 100 L 179 128 L 160 137 L 156 138 L 52 138 L 47 139 L 40 143 Q 34 147 32 155 L 32 400 L 35 407 Q 39 414 49 416 L 464 416 L 471 413 Q 478 409 480 400 L 480 155 L 476 147 Q 471 140 461 138 L 357 138 Q 339 134 329 124 L 303 98 L 302 96 L 212 96 Z " /><path fill="rgb(0,0,0)" stroke="rgb(0,0,0)" stroke-width="1" opacity="0.996078431372549" d="M 62.5 160 L 108.5 160 L 116 165.5 L 117 167.5 L 117 194.5 L 112.5 201 L 110.5 202 L 60.5 202 L 55 197.5 L 54 195.5 L 54 166.5 L 56 163 L 62.5 160 Z " /><path fill="rgb(0,0,0)" stroke="rgb(0,0,0)" stroke-width="1" opacity="0.996078431372549" d="M 249.5 160 L 262.5 160 L 263.5 161 L 278.5 162 L 301.5 169 Q 326.2 179.8 343 198.5 Q 356.6 213.4 365 233.5 L 372 259.5 Q 370.5 265 373 266.5 L 373 287.5 L 369 309.5 L 358 335.5 Q 347 354.5 330.5 368 Q 314.5 381.5 292.5 389 L 269.5 394 L 242.5 394 Q 191.1 385.4 165 351.5 Q 150.5 334 143 309.5 L 139 288.5 L 139 266.5 L 143 245.5 Q 147.3 229.8 155 217.5 Q 164.4 201.9 177.5 190 Q 191.8 177.3 210.5 169 L 233.5 162 L 248.5 161 L 249.5 160 Z M 247 181 L 246 182 L 235 183 L 222 187 Q 207 193 196 202 Q 167 223 160 266 L 160 290 L 163 304 Q 169 326 183 341 Q 197 357 218 366 L 237 372 L 251 373 L 252 374 L 271 373 L 290 368 Q 307 361 320 350 Q 345 329 352 290 L 352 266 L 348 248 Q 342 230 331 217 Q 315 197 291 187 L 278 183 L 267 182 L 266 181 L 247 181 Z " /><path fill="rgb(0,0,0)" stroke="rgb(0,0,0)" stroke-width="1" opacity="0.996078431372549" d="M 252.5 224 L 260.5 224 L 276.5 228 Q 289.8 233.8 298 244.5 L 307 261.5 L 309 270.5 L 309 284.5 Q 305 306.5 290.5 318 Q 281.9 325.4 269.5 329 L 264.5 330 L 247.5 330 Q 226.4 325.6 215 311.5 Q 208.5 304 205 293.5 L 203 284.5 L 203 270.5 Q 207.3 246.8 223.5 235 L 235.5 228 L 252.5 224 Z M 252 245 L 247 246 L 236 252 Q 227 259 224 271 L 224 284 L 229 296 L 241 306 L 254 310 Q 267 310 275 304 Q 285 297 288 284 L 288 271 L 281 257 Q 275 249 266 246 L 252 245 Z " /></svg>