<svg width="512" height="512" version="1.1" xmlns="http://www.w3.org/2000/svg" desc="Created with imagetracer.js version 1.2.6" ><path fill="rgb(0,0,0)" stroke="rgb(0,0,0)" stroke-width="1" opacity="0" d="M 0 0 L 512 0 L 512 249.5 L 511 249.5 L 510 243.5 L 501.5 232 L 492.5 226 L 485.5 224 L 479.5 224 L 384.5 288 Q 382.2 256.3 363.5 241 Q 361.3 241.8 362 239.5 Q 379.1 229.6 391 214.5 Q 406 197 413 171.5 L 416 154.5 L 416 133.5 L 412 112.5 L 401 87.5 Q 391.8 71.7 378.5 60 Q 360.8 44.2 335.5 36 L 314.5 32 L 293.5 32 L 272.5 36 L 247.5 47 Q 231.7 56.2 220 69.5 Q 206.1 85.1 198 106.5 L 193 126.5 L 191.5 150 L 189 134.5 L 181 114.5 Q 171.5 97.1 156.5 85 Q 142 73 121.5 67 L 105.5 64 L 86.5 64 L 70.5 67 L 50.5 75 Q 33.1 84.6 21 99.5 L 7 122.5 L 2 138.5 L 0.5 150 L 0 0 Z " /><path fill="rgb(0,0,0)" stroke="rgb(0,0,0)" stroke-width="1" opacity="0" d="M 295.5 64 L 319.5 65 L 335.5 70 Q 351.9 77.1 363 89.5 Q 374.9 102.1 381 120.5 L 384 135.5 L 384 152.5 L 381 167.5 L 374 183.5 L 358.5 203 Q 345.9 214.9 327.5 221 L 312.5 224 L 295.5 224 L 280.5 221 L 264.5 214 L 245 198.5 Q 233.1 185.9 227 167.5 L 224 152.5 L 224 135.5 L 227 120.5 L 234 104.5 L 249.5 85 Q 259.2 75.7 272.5 70 L 280.5 67 L 295.5 64 Z " /><path fill="rgb(0,0,0)" stroke="rgb(0,0,0)" stroke-width="1" opacity="0" d="M 89.5 96 L 102.5 96 L 121.5 101 Q 135.5 107.5 145 118.5 Q 153.9 128.6 158 143.5 L 160 153.5 L 160 166.5 L 158 176.5 L 152 191.5 L 137.5 209 Q 127.4 217.9 112.5 222 L 102.5 224 L 89.5 224 L 79.5 222 L 64.5 216 L 47 201.5 Q 38.1 191.4 34 176.5 L 32 166.5 L 32 153.5 L 34 143.5 L 40 128.5 L 54.5 111 L 70.5 101 L 89.5 96 Z " /><path fill="rgb(0,0,0)" stroke="rgb(0,0,0)" stroke-width="1" opacity="0" d="M 192.5 156 L 194 167.5 L 200 186.5 Q 209.1 208.4 225 223.5 L 168 224 Q 178.8 211.5 186 194.5 L 191 176.5 L 192.5 156 Z " /><path fill="rgb(0,0,0)" stroke="rgb(0,0,0)" stroke-width="1" opacity="0" d="M 0.5 171 Q 6.8 210.2 31.5 231 Q 34.1 230.3 33 233 Q 23.3 236.3 17 244.5 Q 4 257 0.5 279 L 0.5 171 Z " /><path fill="rgb(0,0,0)" stroke="rgb(0,0,0)" stroke-width="1" opacity="0" d="M 60.5 256 L 323.5 256 L 331.5 258 L 343 265 L 350 276.5 L 352 284.5 L 352 419.5 L 350 427.5 L 343 439 L 331.5 446 L 323.5 448 L 60.5 448 L 52.5 446 L 41 439 L 34 427.5 L 32 419.5 L 32 284.5 L 34 276.5 L 41 265 L 52.5 258 L 60.5 256 Z " /><path fill="rgb(0,0,0)" stroke="rgb(0,0,0)" stroke-width="1" opacity="0" d="M 479.5 256 L 480 447 L 384 367.5 L 384 320.5 L 386.5 318 L 479.5 256 Z " /><path fill="rgb(0,0,0)" stroke="rgb(0,0,0)" stroke-width="1" opacity="0" d="M 384 401 L 479.5 480 L 485.5 480 L 492.5 478 L 504 469.5 L 510 460.5 L 511.5 454 L 512 512 L 0.5 512 L 0 511.5 L 0 424.5 L 1 424.5 L 2 433.5 L 9 449.5 L 23.5 466 L 40.5 476 L 56.5 480 L 327.5 480 Q 355.7 475.2 370 456.5 Q 378 447 382 433.5 L 384 423.5 L 384 401 Z " /><path fill="rgb(0,0,0)" stroke="rgb(0,0,0)" stroke-width="1" opacity="0.796078431372549" d="M 293.5 32 L 302 32.5 L 293.5 33 L 293.5 32 Z " /><path fill="rgb(0,0,0)" stroke="rgb(0,0,0)" stroke-width="1" opacity="0.796078431372549" d="M 306.5 32 L 315 32.5 L 306.5 33 L 306.5 32 Z " /><path fill="rgb(0,0,0)" stroke="rgb(0,0,0)" stroke-width="1" opacity="0.796078431372549" d="M 286.5 33 L 289 33.5 L 286.5 34 L 286.5 33 Z " /><path fill="rgb(0,0,0)" stroke="rgb(0,0,0)" stroke-width="1" opacity="0.796078431372549" d="M 319.5 33 L 322 33.5 L 319.5 34 L 319.5 33 Z " /><path fill="rgb(0,0,0)" stroke="rgb(0,0,0)" stroke-width="1" opacity="0.796078431372549" d="M 280.5 34 L 283 34.5 L 280.5 35 L 280.5 34 Z " /><path fill="rgb(0,0,0)" stroke="rgb(0,0,0)" stroke-width="1" opacity="0.796078431372549" d="M 325.5 34 L 328 34.5 L 325.5 35 L 325.5 34 Z " /><path fill="rgb(0,0,0)" stroke="rgb(0,0,0)" stroke-width="1" opacity="0.796078431372549" d="M 242.5 50 L 241.5 52 L 242.5 50 Z " /><path fill="rgb(0,0,0)" stroke="rgb(0,0,0)" stroke-width="1" opacity="0.796078431372549" d="M 365.5 50 L 366.5 52 L 365.5 50 Z " /><path fill="rgb(0,0,0)" stroke="rgb(0,0,0)" stroke-width="1" opacity="0.796078431372549" d="M 239.5 52 L 237.5 55 L 239.5 52 Z " /><path fill="rgb(0,0,0)" stroke="rgb(0,0,0)" stroke-width="1" opacity="0.796078431372549" d="M 368.5 52 L 370.5 55 L 368.5 52 Z " /><path fill="rgb(0,0,0)" stroke="rgb(0,0,0)" stroke-width="1" opacity="0.796078431372549" d="M 235.5 55 L 234.5 57 L 235.5 55 Z " /><path fill="rgb(0,0,0)" stroke="rgb(0,0,0)" stroke-width="1" opacity="0.796078431372549" d="M 372.5 55 L 373.5 57 L 372.5 55 Z " /><path fill="rgb(0,0,0)" stroke="rgb(0,0,0)" stroke-width="1" opacity="0.796078431372549" d="M 229.5 60 L 220.5 70 L 229.5 60 Z " /><path fill="rgb(0,0,0)" stroke="rgb(0,0,0)" stroke-width="1" opacity="0.796078431372549" d="M 378.5 60 L 387.5 70 L 378.5 60 Z " /><path fill="rgb(0,0,0)" stroke="rgb(0,0,0)" stroke-width="1" opacity="0.796078431372549" d="M 302.5 63 L 306 63.5 L 302.5 64 L 302.5 63 Z " /><path fill="rgb(0,0,0)" stroke="rgb(0,0,0)" stroke-width="1" opacity="0.796078431372549" d="M 86.5 64 L 94 64.5 L 86.5 65 L 86.5 64 Z " /><path fill="rgb(0,0,0)" stroke="rgb(0,0,0)" stroke-width="1" opacity="0.796078431372549" d="M 98.5 64 L 106 64.5 L 98.5 65 L 98.5 64 Z " /><path fill="rgb(0,0,0)" stroke="rgb(0,0,0)" stroke-width="1" opacity="0.796078431372549" d="M 291.5 64 L 295 64.5 L 291.5 65 L 291.5 64 Z " /><path fill="rgb(0,0,0)" stroke="rgb(0,0,0)" stroke-width="1" opacity="0.796078431372549" d="M 313.5 64 L 317 64.5 L 313.5 65 L 313.5 64 Z " /><path fill="rgb(0,0,0)" stroke="rgb(0,0,0)" stroke-width="1" opacity="0.796078431372549" d="M 79.5 65 L 82 65.5 L 79.5 66 L 79.5 65 Z " /><path fill="rgb(0,0,0)" stroke="rgb(0,0,0)" stroke-width="1" opacity="0.796078431372549" d="M 110.5 65 L 113 65.5 L 110.5 66 L 110.5 65 Z " /><path fill="rgb(0,0,0)" stroke="rgb(0,0,0)" stroke-width="1" opacity="0.796078431372549" d="M 58.5 71 L 60 71.5 L 56.5 73 L 56.5 72 L 58.5 71 Z " /><path fill="rgb(0,0,0)" stroke="rgb(0,0,0)" stroke-width="1" opacity="0.796078431372549" d="M 132.5 71 L 136 72.5 L 134.5 73 L 132.5 71 Z " /><path fill="rgb(0,0,0)" stroke="rgb(0,0,0)" stroke-width="1" opacity="0.796078431372549" d="M 216.5 74 L 215.5 76 L 216.5 74 Z " /><path fill="rgb(0,0,0)" stroke="rgb(0,0,0)" stroke-width="1" opacity="0.796078431372549" d="M 263.5 74 L 262.5 76 L 263.5 74 Z " /><path fill="rgb(0,0,0)" stroke="rgb(0,0,0)" stroke-width="1" opacity="0.796078431372549" d="M 344.5 74 L 345.5 76 L 344.5 74 Z " /><path fill="rgb(0,0,0)" stroke="rgb(0,0,0)" stroke-width="1" opacity="0.796078431372549" d="M 391.5 74 L 392.5 76 L 391.5 74 Z " /><path fill="rgb(0,0,0)" stroke="rgb(0,0,0)" stroke-width="1" opacity="0.796078431372549" d="M 50.5 75 L 49.5 77 L 50.5 75 Z " /><path fill="rgb(0,0,0)" stroke="rgb(0,0,0)" stroke-width="1" opacity="0.796078431372549" d="M 141.5 75 L 142.5 77 L 141.5 75 Z " /><path fill="rgb(0,0,0)" stroke="rgb(0,0,0)" stroke-width="1" opacity="0.796078431372549" d="M 214.5 77 L 212.5 80 L 214.5 77 Z " /><path fill="rgb(0,0,0)" stroke="rgb(0,0,0)" stroke-width="1" opacity="0.796078431372549" d="M 393.5 77 L 395.5 80 L 393.5 77 Z " /><path fill="rgb(0,0,0)" stroke="rgb(0,0,0)" stroke-width="1" opacity="0.796078431372549" d="M 45.5 78 L 44.5 80 L 45.5 78 Z " /><path fill="rgb(0,0,0)" stroke="rgb(0,0,0)" stroke-width="1" opacity="0.796078431372549" d="M 146.5 78 L 147.5 80 L 146.5 78 Z " /><path fill="rgb(0,0,0)" stroke="rgb(0,0,0)" stroke-width="1" opacity="0.796078431372549" d="M 257.5 78 L 256.5 80 L 257.5 78 Z " /><path fill="rgb(0,0,0)" stroke="rgb(0,0,0)" stroke-width="1" opacity="0.796078431372549" d="M 350.5 78 L 351.5 80 L 350.5 78 Z " /><path fill="rgb(0,0,0)" stroke="rgb(0,0,0)" stroke-width="1" opacity="0.796078431372549" d="M 211.5 81 L 210.5 83 L 211.5 81 Z " /><path fill="rgb(0,0,0)" stroke="rgb(0,0,0)" stroke-width="1" opacity="0.796078431372549" d="M 253.5 81 L 250.5 85 L 253.5 81 Z " /><path fill="rgb(0,0,0)" stroke="rgb(0,0,0)" stroke-width="1" opacity="0.796078431372549" d="M 354.5 81 L 357.5 85 L 354.5 81 Z " /><path fill="rgb(0,0,0)" stroke="rgb(0,0,0)" stroke-width="1" opacity="0.796078431372549" d="M 396.5 81 L 397.5 83 L 396.5 81 Z " /><path fill="rgb(0,0,0)" stroke="rgb(0,0,0)" stroke-width="1" opacity="0.796078431372549" d="M 39.5 82 L 38.5 84 L 39.5 82 Z " /><path fill="rgb(0,0,0)" stroke="rgb(0,0,0)" stroke-width="1" opacity="0.796078431372549" d="M 152.5 82 L 153.5 84 L 152.5 82 Z " /><path fill="rgb(0,0,0)" stroke="rgb(0,0,0)" stroke-width="1" opacity="0.796078431372549" d="M 35.5 85 L 31.5 90 L 35.5 85 Z " /><path fill="rgb(0,0,0)" stroke="rgb(0,0,0)" stroke-width="1" opacity="0.796078431372549" d="M 156.5 85 L 160.5 90 L 156.5 85 Z " /><path fill="rgb(0,0,0)" stroke="rgb(0,0,0)" stroke-width="1" opacity="0.796078431372549" d="M 244.5 90 L 241.5 94 L 244.5 90 Z " /><path fill="rgb(0,0,0)" stroke="rgb(0,0,0)" stroke-width="1" opacity="0.796078431372549" d="M 363.5 90 L 366.5 94 L 363.5 90 Z " /><path fill="rgb(0,0,0)" stroke="rgb(0,0,0)" stroke-width="1" opacity="0.796078431372549" d="M 25.5 95 L 21.5 100 L 25.5 95 Z " /><path fill="rgb(0,0,0)" stroke="rgb(0,0,0)" stroke-width="1" opacity="0.796078431372549" d="M 166.5 95 L 170.5 100 L 166.5 95 Z " /><path fill="rgb(0,0,0)" stroke="rgb(0,0,0)" stroke-width="1" opacity="0.796078431372549" d="M 86.5 96 L 89 96.5 L 86.5 97 L 86.5 96 Z " /><path fill="rgb(0,0,0)" stroke="rgb(0,0,0)" stroke-width="1" opacity="0.796078431372549" d="M 103.5 96 L 106 96.5 L 103.5 97 L 103.5 96 Z " /><path fill="rgb(0,0,0)" stroke="rgb(0,0,0)" stroke-width="1" opacity="0.796078431372549" d="M 239.5 96 L 238.5 98 L 239.5 96 Z " /><path fill="rgb(0,0,0)" stroke="rgb(0,0,0)" stroke-width="1" opacity="0.796078431372549" d="M 368.5 96 L 369.5 98 L 368.5 96 Z " /><path fill="rgb(0,0,0)" stroke="rgb(0,0,0)" stroke-width="1" opacity="0.796078431372549" d="M 19.5 102 L 18.5 104 L 19.5 102 Z " /><path fill="rgb(0,0,0)" stroke="rgb(0,0,0)" stroke-width="1" opacity="0.796078431372549" d="M 172.5 102 L 173.5 104 L 172.5 102 Z " /><path fill="rgb(0,0,0)" stroke="rgb(0,0,0)" stroke-width="1" opacity="0.796078431372549" d="M 235.5 102 L 234.5 104 L 235.5 102 Z " /><path fill="rgb(0,0,0)" stroke="rgb(0,0,0)" stroke-width="1" opacity="0.796078431372549" d="M 372.5 102 L 373.5 104 L 372.5 102 Z " /><path fill="rgb(0,0,0)" stroke="rgb(0,0,0)" stroke-width="1" opacity="0.796078431372549" d="M 63.5 104 L 62.5 106 L 63.5 104 Z " /><path fill="rgb(0,0,0)" stroke="rgb(0,0,0)" stroke-width="1" opacity="0.796078431372549" d="M 128.5 104 L 129.5 106 L 128.5 104 Z " /><path fill="rgb(0,0,0)" stroke="rgb(0,0,0)" stroke-width="1" opacity="0.796078431372549" d="M 60.5 106 L 59.5 108 L 60.5 106 Z " /><path fill="rgb(0,0,0)" stroke="rgb(0,0,0)" stroke-width="1" opacity="0.796078431372549" d="M 131.5 106 L 132.5 108 L 131.5 106 Z " /><path fill="rgb(0,0,0)" stroke="rgb(0,0,0)" stroke-width="1" opacity="0.796078431372549" d="M 15.5 108 L 14.5 110 L 15.5 108 Z " /><path fill="rgb(0,0,0)" stroke="rgb(0,0,0)" stroke-width="1" opacity="0.796078431372549" d="M 57.5 108 L 55.5 111 L 57.5 108 Z " /><path fill="rgb(0,0,0)" stroke="rgb(0,0,0)" stroke-width="1" opacity="0.796078431372549" d="M 134.5 108 L 136.5 111 L 134.5 108 Z " /><path fill="rgb(0,0,0)" stroke="rgb(0,0,0)" stroke-width="1" opacity="0.796078431372549" d="M 176.5 108 L 177.5 110 L 176.5 108 Z " /><path fill="rgb(0,0,0)" stroke="rgb(0,0,0)" stroke-width="1" opacity="0.796078431372549" d="M 12.5 113 L 11.5 115 L 12.5 113 Z " /><path fill="rgb(0,0,0)" stroke="rgb(0,0,0)" stroke-width="1" opacity="0.796078431372549" d="M 179.5 113 L 180.5 115 L 179.5 113 Z " /><path fill="rgb(0,0,0)" stroke="rgb(0,0,0)" stroke-width="1" opacity="0.796078431372549" d="M 46.5 119 L 44.5 122 L 46.5 119 Z " /><path fill="rgb(0,0,0)" stroke="rgb(0,0,0)" stroke-width="1" opacity="0.796078431372549" d="M 145.5 119 L 147.5 122 L 145.5 119 Z " /><path fill="rgb(0,0,0)" stroke="rgb(0,0,0)" stroke-width="1" opacity="0.796078431372549" d="M 8.5 120 L 9 121.5 L 7.5 124 L 7 122.5 L 8.5 120 Z " /><path fill="rgb(0,0,0)" stroke="rgb(0,0,0)" stroke-width="1" opacity="0.796078431372549" d="M 183.5 120 L 185 123.5 L 184 123.5 L 183.5 120 Z " /><path fill="rgb(0,0,0)" stroke="rgb(0,0,0)" stroke-width="1" opacity="0.796078431372549" d="M 194.5 120 L 195 122.5 L 194 122.5 L 194.5 120 Z " /><path fill="rgb(0,0,0)" stroke="rgb(0,0,0)" stroke-width="1" opacity="0.796078431372549" d="M 413.5 120 L 414 122.5 L 413 122.5 L 413.5 120 Z " /><path fill="rgb(0,0,0)" stroke="rgb(0,0,0)" stroke-width="1" opacity="0.796078431372549" d="M 43.5 123 L 42.5 125 L 43.5 123 Z " /><path fill="rgb(0,0,0)" stroke="rgb(0,0,0)" stroke-width="1" opacity="0.796078431372549" d="M 148.5 123 L 149.5 125 L 148.5 123 Z " /><path fill="rgb(0,0,0)" stroke="rgb(0,0,0)" stroke-width="1" opacity="0.796078431372549" d="M 41.5 126 L 40.5 128 L 41.5 126 Z " /><path fill="rgb(0,0,0)" stroke="rgb(0,0,0)" stroke-width="1" opacity="0.796078431372549" d="M 150.5 126 L 151.5 128 L 150.5 126 Z " /><path fill="rgb(0,0,0)" stroke="rgb(0,0,0)" stroke-width="1" opacity="0.796078431372549" d="M 193.5 126 L 194 128.5 L 193 128.5 L 193.5 126 Z " /><path fill="rgb(0,0,0)" stroke="rgb(0,0,0)" stroke-width="1" opacity="0.796078431372549" d="M 414.5 126 L 415 128.5 L 414 128.5 L 414.5 126 Z " /><path fill="rgb(0,0,0)" stroke="rgb(0,0,0)" stroke-width="1" opacity="0.796078431372549" d="M 224.5 132 L 225 134.5 L 224 134.5 L 224.5 132 Z " /><path fill="rgb(0,0,0)" stroke="rgb(0,0,0)" stroke-width="1" opacity="0.796078431372549" d="M 383.5 132 L 384 134.5 L 383 134.5 L 383.5 132 Z " /><path fill="rgb(0,0,0)" stroke="rgb(0,0,0)" stroke-width="1" opacity="0.796078431372549" d="M 192.5 133 L 193 141.5 L 192 141.5 L 192.5 133 Z " /><path fill="rgb(0,0,0)" stroke="rgb(0,0,0)" stroke-width="1" opacity="0.796078431372549" d="M 415.5 133 L 416 141.5 L 415 141.5 L 415.5 133 Z " /><path fill="rgb(0,0,0)" stroke="rgb(0,0,0)" stroke-width="1" opacity="0.796078431372549" d="M 223.5 142 L 224 145.5 L 223 145.5 L 223.5 142 Z " /><path fill="rgb(0,0,0)" stroke="rgb(0,0,0)" stroke-width="1" opacity="0.796078431372549" d="M 384.5 142 L 385 145.5 L 384 145.5 L 384.5 142 Z " /><path fill="rgb(0,0,0)" stroke="rgb(0,0,0)" stroke-width="1" opacity="0.796078431372549" d="M 1.5 143 L 2 145.5 L 1 145.5 L 1.5 143 Z " /><path fill="rgb(0,0,0)" stroke="rgb(0,0,0)" stroke-width="1" opacity="0.796078431372549" d="M 190.5 143 L 191 145.5 L 190 145.5 L 190.5 143 Z " /><path fill="rgb(0,0,0)" stroke="rgb(0,0,0)" stroke-width="1" opacity="0.796078431372549" d="M 192.5 146 L 193 155.5 L 191.5 158 L 191 150.5 L 192.5 146 Z " /><path fill="rgb(0,0,0)" stroke="rgb(0,0,0)" stroke-width="1" opacity="0.796078431372549" d="M 415.5 147 L 416 154.5 L 415 154.5 L 415.5 147 Z " /><path fill="rgb(0,0,0)" stroke="rgb(0,0,0)" stroke-width="1" opacity="0.796078431372549" d="M 0.5 150 L 1 157.5 L 0 157.5 L 0.5 150 Z " /><path fill="rgb(0,0,0)" stroke="rgb(0,0,0)" stroke-width="1" opacity="0.796078431372549" d="M 32.5 150 L 33 152.5 L 32 152.5 L 32.5 150 Z " /><path fill="rgb(0,0,0)" stroke="rgb(0,0,0)" stroke-width="1" opacity="0.796078431372549" d="M 159.5 150 L 160 152.5 L 159 152.5 L 159.5 150 Z " /><path fill="rgb(0,0,0)" stroke="rgb(0,0,0)" stroke-width="1" opacity="0.796078431372549" d="M 224.5 153 L 225 156.5 L 224 156.5 L 224.5 153 Z " /><path fill="rgb(0,0,0)" stroke="rgb(0,0,0)" stroke-width="1" opacity="0.796078431372549" d="M 383.5 153 L 384 156.5 L 383 156.5 L 383.5 153 Z " /><path fill="rgb(0,0,0)" stroke="rgb(0,0,0)" stroke-width="1" opacity="0.796078431372549" d="M 193.5 159 L 194 161.5 L 193 161.5 L 193.5 159 Z " /><path fill="rgb(0,0,0)" stroke="rgb(0,0,0)" stroke-width="1" opacity="0.796078431372549" d="M 414.5 159 L 415 161.5 L 414 161.5 L 414.5 159 Z " /><path fill="rgb(0,0,0)" stroke="rgb(0,0,0)" stroke-width="1" opacity="0.796078431372549" d="M 0.5 162 L 1 170.5 L 0 170.5 L 0.5 162 Z " /><path fill="rgb(0,0,0)" stroke="rgb(0,0,0)" stroke-width="1" opacity="0.796078431372549" d="M 191.5 162 L 192 169.5 L 191 169.5 L 191.5 162 Z " /><path fill="rgb(0,0,0)" stroke="rgb(0,0,0)" stroke-width="1" opacity="0.796078431372549" d="M 413.5 164 L 414 166.5 L 413 166.5 L 413.5 164 Z " /><path fill="rgb(0,0,0)" stroke="rgb(0,0,0)" stroke-width="1" opacity="0.796078431372549" d="M 194.5 165 L 195 167.5 L 194 167.5 L 194.5 165 Z " /><path fill="rgb(0,0,0)" stroke="rgb(0,0,0)" stroke-width="1" opacity="0.796078431372549" d="M 32.5 167 L 33 169.5 L 32 169.5 L 32.5 167 Z " /><path fill="rgb(0,0,0)" stroke="rgb(0,0,0)" stroke-width="1" opacity="0.796078431372549" d="M 159.5 167 L 160 169.5 L 159 169.5 L 159.5 167 Z " /><path fill="rgb(0,0,0)" stroke="rgb(0,0,0)" stroke-width="1" opacity="0.796078431372549" d="M 412.5 169 L 413 171.5 L 412 171.5 L 412.5 169 Z " /><path fill="rgb(0,0,0)" stroke="rgb(0,0,0)" stroke-width="1" opacity="0.796078431372549" d="M 1.5 174 L 2 176.5 L 1 176.5 L 1.5 174 Z " /><path fill="rgb(0,0,0)" stroke="rgb(0,0,0)" stroke-width="1" opacity="0.796078431372549" d="M 190.5 174 L 191 176.5 L 190 176.5 L 190.5 174 Z " /><path fill="rgb(0,0,0)" stroke="rgb(0,0,0)" stroke-width="1" opacity="0.796078431372549" d="M 189.5 179 L 190 181.5 L 189 181.5 L 189.5 179 Z " /><path fill="rgb(0,0,0)" stroke="rgb(0,0,0)" stroke-width="1" opacity="0.796078431372549" d="M 234.5 184 L 235.5 186 L 234.5 184 Z " /><path fill="rgb(0,0,0)" stroke="rgb(0,0,0)" stroke-width="1" opacity="0.796078431372549" d="M 373.5 184 L 372.5 186 L 373.5 184 Z " /><path fill="rgb(0,0,0)" stroke="rgb(0,0,0)" stroke-width="1" opacity="0.796078431372549" d="M 238.5 190 L 239.5 192 L 238.5 190 Z " /><path fill="rgb(0,0,0)" stroke="rgb(0,0,0)" stroke-width="1" opacity="0.796078431372549" d="M 369.5 190 L 368.5 192 L 369.5 190 Z " /><path fill="rgb(0,0,0)" stroke="rgb(0,0,0)" stroke-width="1" opacity="0.796078431372549" d="M 40.5 192 L 41.5 194 L 40.5 192 Z " /><path fill="rgb(0,0,0)" stroke="rgb(0,0,0)" stroke-width="1" opacity="0.796078431372549" d="M 151.5 192 L 150.5 194 L 151.5 192 Z " /><path fill="rgb(0,0,0)" stroke="rgb(0,0,0)" stroke-width="1" opacity="0.796078431372549" d="M 241.5 194 L 244.5 198 L 241.5 194 Z " /><path fill="rgb(0,0,0)" stroke="rgb(0,0,0)" stroke-width="1" opacity="0.796078431372549" d="M 366.5 194 L 363.5 198 L 366.5 194 Z " /><path fill="rgb(0,0,0)" stroke="rgb(0,0,0)" stroke-width="1" opacity="0.796078431372549" d="M 42.5 195 L 43.5 197 L 42.5 195 Z " /><path fill="rgb(0,0,0)" stroke="rgb(0,0,0)" stroke-width="1" opacity="0.796078431372549" d="M 149.5 195 L 148.5 197 L 149.5 195 Z " /><path fill="rgb(0,0,0)" stroke="rgb(0,0,0)" stroke-width="1" opacity="0.796078431372549" d="M 44.5 198 L 46.5 201 L 44.5 198 Z " /><path fill="rgb(0,0,0)" stroke="rgb(0,0,0)" stroke-width="1" opacity="0.796078431372549" d="M 147.5 198 L 145.5 201 L 147.5 198 Z " /><path fill="rgb(0,0,0)" stroke="rgb(0,0,0)" stroke-width="1" opacity="0.796078431372549" d="M 207.5 200 L 208.5 202 L 207.5 200 Z " /><path fill="rgb(0,0,0)" stroke="rgb(0,0,0)" stroke-width="1" opacity="0.796078431372549" d="M 400.5 200 L 399.5 202 L 400.5 200 Z " /><path fill="rgb(0,0,0)" stroke="rgb(0,0,0)" stroke-width="1" opacity="0.796078431372549" d="M 250.5 203 L 253.5 207 L 250.5 203 Z " /><path fill="rgb(0,0,0)" stroke="rgb(0,0,0)" stroke-width="1" opacity="0.796078431372549" d="M 357.5 203 L 354.5 207 L 357.5 203 Z " /><path fill="rgb(0,0,0)" stroke="rgb(0,0,0)" stroke-width="1" opacity="0.796078431372549" d="M 398.5 203 L 397.5 205 L 398.5 203 Z " /><path fill="rgb(0,0,0)" stroke="rgb(0,0,0)" stroke-width="1" opacity="0.796078431372549" d="M 210.5 205 L 211.5 207 L 210.5 205 Z " /><path fill="rgb(0,0,0)" stroke="rgb(0,0,0)" stroke-width="1" opacity="0.796078431372549" d="M 13.5 208 L 14.5 210 L 13.5 208 Z " /><path fill="rgb(0,0,0)" stroke="rgb(0,0,0)" stroke-width="1" opacity="0.796078431372549" d="M 178.5 208 L 177.5 210 L 178.5 208 Z " /><path fill="rgb(0,0,0)" stroke="rgb(0,0,0)" stroke-width="1" opacity="0.796078431372549" d="M 256.5 208 L 257.5 210 L 256.5 208 Z " /><path fill="rgb(0,0,0)" stroke="rgb(0,0,0)" stroke-width="1" opacity="0.796078431372549" d="M 351.5 208 L 350.5 210 L 351.5 208 Z " /><path fill="rgb(0,0,0)" stroke="rgb(0,0,0)" stroke-width="1" opacity="0.796078431372549" d="M 55.5 209 L 57.5 212 L 55.5 209 Z " /><path fill="rgb(0,0,0)" stroke="rgb(0,0,0)" stroke-width="1" opacity="0.796078431372549" d="M 136.5 209 L 134.5 212 L 136.5 209 Z " /><path fill="rgb(0,0,0)" stroke="rgb(0,0,0)" stroke-width="1" opacity="0.796078431372549" d="M 213.5 209 L 214.5 211 L 213.5 209 Z " /><path fill="rgb(0,0,0)" stroke="rgb(0,0,0)" stroke-width="1" opacity="0.796078431372549" d="M 15.5 211 L 16.5 213 L 15.5 211 Z " /><path fill="rgb(0,0,0)" stroke="rgb(0,0,0)" stroke-width="1" opacity="0.796078431372549" d="M 176.5 211 L 175.5 213 L 176.5 211 Z " /><path fill="rgb(0,0,0)" stroke="rgb(0,0,0)" stroke-width="1" opacity="0.796078431372549" d="M 59.5 212 L 60.5 214 L 59.5 212 Z " /><path fill="rgb(0,0,0)" stroke="rgb(0,0,0)" stroke-width="1" opacity="0.796078431372549" d="M 132.5 212 L 131.5 214 L 132.5 212 Z " /><path fill="rgb(0,0,0)" stroke="rgb(0,0,0)" stroke-width="1" opacity="0.796078431372549" d="M 262.5 212 L 263.5 214 L 262.5 212 Z " /><path fill="rgb(0,0,0)" stroke="rgb(0,0,0)" stroke-width="1" opacity="0.796078431372549" d="M 345.5 212 L 344.5 214 L 345.5 212 Z " /><path fill="rgb(0,0,0)" stroke="rgb(0,0,0)" stroke-width="1" opacity="0.796078431372549" d="M 216.5 213 L 217.5 215 L 216.5 213 Z " /><path fill="rgb(0,0,0)" stroke="rgb(0,0,0)" stroke-width="1" opacity="0.796078431372549" d="M 17.5 214 L 18.5 216 L 17.5 214 Z " /><path fill="rgb(0,0,0)" stroke="rgb(0,0,0)" stroke-width="1" opacity="0.796078431372549" d="M 62.5 214 L 63.5 216 L 62.5 214 Z " /><path fill="rgb(0,0,0)" stroke="rgb(0,0,0)" stroke-width="1" opacity="0.796078431372549" d="M 129.5 214 L 128.5 216 L 129.5 214 Z " /><path fill="rgb(0,0,0)" stroke="rgb(0,0,0)" stroke-width="1" opacity="0.796078431372549" d="M 174.5 214 L 173.5 216 L 174.5 214 Z " /><path fill="rgb(0,0,0)" stroke="rgb(0,0,0)" stroke-width="1" opacity="0.796078431372549" d="M 390.5 214 L 386.5 219 L 390.5 214 Z " /><path fill="rgb(0,0,0)" stroke="rgb(0,0,0)" stroke-width="1" opacity="0.796078431372549" d="M 19.5 217 L 22.5 221 L 19.5 217 Z " /><path fill="rgb(0,0,0)" stroke="rgb(0,0,0)" stroke-width="1" opacity="0.796078431372549" d="M 172.5 217 L 169.5 221 L 172.5 217 Z " /><path fill="rgb(0,0,0)" stroke="rgb(0,0,0)" stroke-width="1" opacity="0.796078431372549" d="M 221.5 219 L 225.5 224 L 221.5 219 Z " /><path fill="rgb(0,0,0)" stroke="rgb(0,0,0)" stroke-width="1" opacity="0.796078431372549" d="M 86.5 223 L 89 223.5 L 86.5 224 L 86.5 223 Z " /><path fill="rgb(0,0,0)" stroke="rgb(0,0,0)" stroke-width="1" opacity="0.796078431372549" d="M 103.5 223 L 106 223.5 L 103.5 224 L 103.5 223 Z " /><path fill="rgb(0,0,0)" stroke="rgb(0,0,0)" stroke-width="1" opacity="0.796078431372549" d="M 292.5 223 L 295 223.5 L 292.5 224 L 292.5 223 Z " /><path fill="rgb(0,0,0)" stroke="rgb(0,0,0)" stroke-width="1" opacity="0.796078431372549" d="M 313.5 223 L 317 223.5 L 313.5 224 L 313.5 223 Z " /><path fill="rgb(0,0,0)" stroke="rgb(0,0,0)" stroke-width="1" opacity="0.796078431372549" d="M 25.5 224 L 31.5 231 L 25.5 224 Z " /><path fill="rgb(0,0,0)" stroke="rgb(0,0,0)" stroke-width="1" opacity="0.796078431372549" d="M 302.5 224 L 306 224.5 L 302.5 225 L 302.5 224 Z " /><path fill="rgb(0,0,0)" stroke="rgb(0,0,0)" stroke-width="1" opacity="0.796078431372549" d="M 481.5 224 L 486 224.5 L 481.5 225 L 481.5 224 Z " /><path fill="rgb(0,0,0)" stroke="rgb(0,0,0)" stroke-width="1" opacity="0.796078431372549" d="M 379.5 225 L 374.5 231 L 379.5 225 Z " /><path fill="rgb(0,0,0)" stroke="rgb(0,0,0)" stroke-width="1" opacity="0.796078431372549" d="M 491.5 226 L 494 227.5 L 492.5 227 L 491.5 226 Z " /><path fill="rgb(0,0,0)" stroke="rgb(0,0,0)" stroke-width="1" opacity="0.796078431372549" d="M 371.5 232 L 370.5 234 L 371.5 232 Z " /><path fill="rgb(0,0,0)" stroke="rgb(0,0,0)" stroke-width="1" opacity="0.796078431372549" d="M 501.5 232 L 503.5 235 L 501.5 232 Z " /><path fill="rgb(0,0,0)" stroke="rgb(0,0,0)" stroke-width="1" opacity="0.796078431372549" d="M 29.5 234 L 28.5 236 L 29.5 234 Z " /><path fill="rgb(0,0,0)" stroke="rgb(0,0,0)" stroke-width="1" opacity="0.796078431372549" d="M 368.5 234 L 367.5 236 L 368.5 234 Z " /><path fill="rgb(0,0,0)" stroke="rgb(0,0,0)" stroke-width="1" opacity="0.796078431372549" d="M 26.5 236 L 24.5 239 L 26.5 236 Z " /><path fill="rgb(0,0,0)" stroke="rgb(0,0,0)" stroke-width="1" opacity="0.796078431372549" d="M 365.5 236 L 364.5 238 L 365.5 236 Z " /><path fill="rgb(0,0,0)" stroke="rgb(0,0,0)" stroke-width="1" opacity="0.796078431372549" d="M 362.5 238 L 361.5 240 L 362.5 238 Z " /><path fill="rgb(0,0,0)" stroke="rgb(0,0,0)" stroke-width="1" opacity="0.796078431372549" d="M 20.5 241 L 17.5 245 L 20.5 241 Z " /><path fill="rgb(0,0,0)" stroke="rgb(0,0,0)" stroke-width="1" opacity="0.796078431372549" d="M 363.5 241 L 367.5 246 L 363.5 241 Z " /><path fill="rgb(0,0,0)" stroke="rgb(0,0,0)" stroke-width="1" opacity="0.796078431372549" d="M 508.5 242 L 510 244.5 L 509 244.5 L 508.5 242 Z " /><path fill="rgb(0,0,0)" stroke="rgb(0,0,0)" stroke-width="1" opacity="0.796078431372549" d="M 369.5 248 L 371.5 251 L 369.5 248 Z " /><path fill="rgb(0,0,0)" stroke="rgb(0,0,0)" stroke-width="1" opacity="0.796078431372549" d="M 13.5 249 L 12.5 251 L 13.5 249 Z " /><path fill="rgb(0,0,0)" stroke="rgb(0,0,0)" stroke-width="1" opacity="0.796078431372549" d="M 511.5 250 L 512 254.5 L 511 254.5 L 511.5 250 Z " /><path fill="rgb(0,0,0)" stroke="rgb(0,0,0)" stroke-width="1" opacity="0.796078431372549" d="M 11.5 252 L 10.5 254 L 11.5 252 Z " /><path fill="rgb(0,0,0)" stroke="rgb(0,0,0)" stroke-width="1" opacity="0.796078431372549" d="M 372.5 252 L 373.5 254 L 372.5 252 Z " /><path fill="rgb(0,0,0)" stroke="rgb(0,0,0)" stroke-width="1" opacity="0.796078431372549" d="M 374.5 255 L 375.5 257 L 374.5 255 Z " /><path fill="rgb(0,0,0)" stroke="rgb(0,0,0)" stroke-width="1" opacity="0.796078431372549" d="M 57.5 256 L 60 256.5 L 57.5 257 L 57.5 256 Z " /><path fill="rgb(0,0,0)" stroke="rgb(0,0,0)" stroke-width="1" opacity="0.796078431372549" d="M 324.5 256 L 327 256.5 L 324.5 257 L 324.5 256 Z " /><path fill="rgb(0,0,0)" stroke="rgb(0,0,0)" stroke-width="1" opacity="0.796078431372549" d="M 45.5 261 L 42.5 265 L 45.5 261 Z " /><path fill="rgb(0,0,0)" stroke="rgb(0,0,0)" stroke-width="1" opacity="0.796078431372549" d="M 338.5 261 L 341.5 265 L 338.5 261 Z " /><path fill="rgb(0,0,0)" stroke="rgb(0,0,0)" stroke-width="1" opacity="0.796078431372549" d="M 40.5 266 L 37.5 270 L 40.5 266 Z " /><path fill="rgb(0,0,0)" stroke="rgb(0,0,0)" stroke-width="1" opacity="0.796078431372549" d="M 343.5 266 L 346.5 270 L 343.5 266 Z " /><path fill="rgb(0,0,0)" stroke="rgb(0,0,0)" stroke-width="1" opacity="0.796078431372549" d="M 382.5 274 L 383 276.5 L 382 276.5 L 382.5 274 Z " /><path fill="rgb(0,0,0)" stroke="rgb(0,0,0)" stroke-width="1" opacity="0.796078431372549" d="M 0.5 279 L 1 286.5 L 0 286.5 L 0.5 279 Z " /><path fill="rgb(0,0,0)" stroke="rgb(0,0,0)" stroke-width="1" opacity="0.796078431372549" d="M 383.5 280 L 384 285.5 L 383 285.5 L 383.5 280 Z " /><path fill="rgb(0,0,0)" stroke="rgb(0,0,0)" stroke-width="1" opacity="0.796078431372549" d="M 32.5 281 L 33 283.5 L 32 283.5 L 32.5 281 Z " /><path fill="rgb(0,0,0)" stroke="rgb(0,0,0)" stroke-width="1" opacity="0.796078431372549" d="M 351.5 281 L 352 283.5 L 351 283.5 L 351.5 281 Z " /><path fill="rgb(0,0,0)" stroke="rgb(0,0,0)" stroke-width="1" opacity="0.796078431372549" d="M 384.5 368 L 386.5 371 L 384.5 368 Z " /><path fill="rgb(0,0,0)" stroke="rgb(0,0,0)" stroke-width="1" opacity="0.796078431372549" d="M 389.5 372 L 392.5 376 L 389.5 372 Z " /><path fill="rgb(0,0,0)" stroke="rgb(0,0,0)" stroke-width="1" opacity="0.796078431372549" d="M 395.5 377 L 398.5 381 L 395.5 377 Z " /><path fill="rgb(0,0,0)" stroke="rgb(0,0,0)" stroke-width="1" opacity="0.796078431372549" d="M 401.5 382 L 404.5 386 L 401.5 382 Z " /><path fill="rgb(0,0,0)" stroke="rgb(0,0,0)" stroke-width="1" opacity="0.796078431372549" d="M 407.5 387 L 410.5 391 L 407.5 387 Z " /><path fill="rgb(0,0,0)" stroke="rgb(0,0,0)" stroke-width="1" opacity="0.796078431372549" d="M 413.5 392 L 416.5 396 L 413.5 392 Z " /><path fill="rgb(0,0,0)" stroke="rgb(0,0,0)" stroke-width="1" opacity="0.796078431372549" d="M 419.5 397 L 422.5 401 L 419.5 397 Z " /><path fill="rgb(0,0,0)" stroke="rgb(0,0,0)" stroke-width="1" opacity="0.796078431372549" d="M 387.5 402 L 390.5 406 L 387.5 402 Z " /><path fill="rgb(0,0,0)" stroke="rgb(0,0,0)" stroke-width="1" opacity="0.796078431372549" d="M 425.5 402 L 428.5 406 L 425.5 402 Z " /><path fill="rgb(0,0,0)" stroke="rgb(0,0,0)" stroke-width="1" opacity="0.796078431372549" d="M 393.5 407 L 396.5 411 L 393.5 407 Z " /><path fill="rgb(0,0,0)" stroke="rgb(0,0,0)" stroke-width="1" opacity="0.796078431372549" d="M 431.5 407 L 434.5 411 L 431.5 407 Z " /><path fill="rgb(0,0,0)" stroke="rgb(0,0,0)" stroke-width="1" opacity="0.796078431372549" d="M 399.5 412 L 402.5 416 L 399.5 412 Z " /><path fill="rgb(0,0,0)" stroke="rgb(0,0,0)" stroke-width="1" opacity="0.796078431372549" d="M 437.5 412 L 440.5 416 L 437.5 412 Z " /><path fill="rgb(0,0,0)" stroke="rgb(0,0,0)" stroke-width="1" opacity="0.796078431372549" d="M 405.5 417 L 408.5 421 L 405.5 417 Z " /><path fill="rgb(0,0,0)" stroke="rgb(0,0,0)" stroke-width="1" opacity="0.796078431372549" d="M 443.5 417 L 446.5 421 L 443.5 417 Z " /><path fill="rgb(0,0,0)" stroke="rgb(0,0,0)" stroke-width="1" opacity="0.796078431372549" d="M 0.5 418 L 1 423.5 L 0 423.5 L 0.5 418 Z " /><path fill="rgb(0,0,0)" stroke="rgb(0,0,0)" stroke-width="1" opacity="0.796078431372549" d="M 383.5 418 L 384 423.5 L 383 423.5 L 383.5 418 Z " /><path fill="rgb(0,0,0)" stroke="rgb(0,0,0)" stroke-width="1" opacity="0.796078431372549" d="M 32.5 420 L 33 422.5 L 32 422.5 L 32.5 420 Z " /><path fill="rgb(0,0,0)" stroke="rgb(0,0,0)" stroke-width="1" opacity="0.796078431372549" d="M 351.5 420 L 352 422.5 L 351 422.5 L 351.5 420 Z " /><path fill="rgb(0,0,0)" stroke="rgb(0,0,0)" stroke-width="1" opacity="0.796078431372549" d="M 411.5 422 L 414.5 426 L 411.5 422 Z " /><path fill="rgb(0,0,0)" stroke="rgb(0,0,0)" stroke-width="1" opacity="0.796078431372549" d="M 449.5 422 L 452.5 426 L 449.5 422 Z " /><path fill="rgb(0,0,0)" stroke="rgb(0,0,0)" stroke-width="1" opacity="0.796078431372549" d="M 417.5 427 L 420.5 431 L 417.5 427 Z " /><path fill="rgb(0,0,0)" stroke="rgb(0,0,0)" stroke-width="1" opacity="0.796078431372549" d="M 455.5 427 L 458.5 431 L 455.5 427 Z " /><path fill="rgb(0,0,0)" stroke="rgb(0,0,0)" stroke-width="1" opacity="0.796078431372549" d="M 423.5 432 L 426.5 436 L 423.5 432 Z " /><path fill="rgb(0,0,0)" stroke="rgb(0,0,0)" stroke-width="1" opacity="0.796078431372549" d="M 461.5 432 L 464.5 436 L 461.5 432 Z " /><path fill="rgb(0,0,0)" stroke="rgb(0,0,0)" stroke-width="1" opacity="0.796078431372549" d="M 37.5 434 L 40.5 438 L 37.5 434 Z " /><path fill="rgb(0,0,0)" stroke="rgb(0,0,0)" stroke-width="1" opacity="0.796078431372549" d="M 346.5 434 L 343.5 438 L 346.5 434 Z " /><path fill="rgb(0,0,0)" stroke="rgb(0,0,0)" stroke-width="1" opacity="0.796078431372549" d="M 429.5 437 L 432.5 441 L 429.5 437 Z " /><path fill="rgb(0,0,0)" stroke="rgb(0,0,0)" stroke-width="1" opacity="0.796078431372549" d="M 467.5 437 L 470.5 441 L 467.5 437 Z " /><path fill="rgb(0,0,0)" stroke="rgb(0,0,0)" stroke-width="1" opacity="0.796078431372549" d="M 42.5 439 L 45.5 443 L 42.5 439 Z " /><path fill="rgb(0,0,0)" stroke="rgb(0,0,0)" stroke-width="1" opacity="0.796078431372549" d="M 341.5 439 L 338.5 443 L 341.5 439 Z " /><path fill="rgb(0,0,0)" stroke="rgb(0,0,0)" stroke-width="1" opacity="0.796078431372549" d="M 435.5 442 L 438.5 446 L 435.5 442 Z " /><path fill="rgb(0,0,0)" stroke="rgb(0,0,0)" stroke-width="1" opacity="0.796078431372549" d="M 473.5 442 L 476.5 446 L 473.5 442 Z " /><path fill="rgb(0,0,0)" stroke="rgb(0,0,0)" stroke-width="1" opacity="0.796078431372549" d="M 57.5 447 L 60 447.5 L 57.5 448 L 57.5 447 Z " /><path fill="rgb(0,0,0)" stroke="rgb(0,0,0)" stroke-width="1" opacity="0.796078431372549" d="M 324.5 447 L 327 447.5 L 324.5 448 L 324.5 447 Z " /><path fill="rgb(0,0,0)" stroke="rgb(0,0,0)" stroke-width="1" opacity="0.796078431372549" d="M 441.5 447 L 444.5 451 L 441.5 447 Z " /><path fill="rgb(0,0,0)" stroke="rgb(0,0,0)" stroke-width="1" opacity="0.796078431372549" d="M 9.5 449 L 10.5 451 L 9.5 449 Z " /><path fill="rgb(0,0,0)" stroke="rgb(0,0,0)" stroke-width="1" opacity="0.796078431372549" d="M 374.5 449 L 373.5 451 L 374.5 449 Z " /><path fill="rgb(0,0,0)" stroke="rgb(0,0,0)" stroke-width="1" opacity="0.796078431372549" d="M 511.5 449 L 512 453.5 L 511 453.5 L 511.5 449 Z " /><path fill="rgb(0,0,0)" stroke="rgb(0,0,0)" stroke-width="1" opacity="0.796078431372549" d="M 11.5 452 L 12.5 454 L 11.5 452 Z " /><path fill="rgb(0,0,0)" stroke="rgb(0,0,0)" stroke-width="1" opacity="0.796078431372549" d="M 372.5 452 L 371.5 454 L 372.5 452 Z " /><path fill="rgb(0,0,0)" stroke="rgb(0,0,0)" stroke-width="1" opacity="0.796078431372549" d="M 447.5 452 L 450.5 456 L 447.5 452 Z " /><path fill="rgb(0,0,0)" stroke="rgb(0,0,0)" stroke-width="1" opacity="0.796078431372549" d="M 14.5 456 L 23.5 466 L 14.5 456 Z " /><path fill="rgb(0,0,0)" stroke="rgb(0,0,0)" stroke-width="1" opacity="0.796078431372549" d="M 369.5 456 L 360.5 466 L 369.5 456 Z " /><path fill="rgb(0,0,0)" stroke="rgb(0,0,0)" stroke-width="1" opacity="0.796078431372549" d="M 453.5 457 L 456.5 461 L 453.5 457 Z " /><path fill="rgb(0,0,0)" stroke="rgb(0,0,0)" stroke-width="1" opacity="0.796078431372549" d="M 509.5 459 L 510 460.5 L 508 461.5 L 509.5 459 Z " /><path fill="rgb(0,0,0)" stroke="rgb(0,0,0)" stroke-width="1" opacity="0.796078431372549" d="M 459.5 462 L 462.5 466 L 459.5 462 Z " /><path fill="rgb(0,0,0)" stroke="rgb(0,0,0)" stroke-width="1" opacity="0.796078431372549" d="M 26.5 467 L 27.5 469 L 26.5 467 Z " /><path fill="rgb(0,0,0)" stroke="rgb(0,0,0)" stroke-width="1" opacity="0.796078431372549" d="M 357.5 467 L 356.5 469 L 357.5 467 Z " /><path fill="rgb(0,0,0)" stroke="rgb(0,0,0)" stroke-width="1" opacity="0.796078431372549" d="M 465.5 467 L 468.5 471 L 465.5 467 Z " /><path fill="rgb(0,0,0)" stroke="rgb(0,0,0)" stroke-width="1" opacity="0.796078431372549" d="M 29.5 469 L 30.5 471 L 29.5 469 Z " /><path fill="rgb(0,0,0)" stroke="rgb(0,0,0)" stroke-width="1" opacity="0.796078431372549" d="M 354.5 469 L 353.5 471 L 354.5 469 Z " /><path fill="rgb(0,0,0)" stroke="rgb(0,0,0)" stroke-width="1" opacity="0.796078431372549" d="M 503.5 469 L 501.5 472 L 503.5 469 Z " /><path fill="rgb(0,0,0)" stroke="rgb(0,0,0)" stroke-width="1" opacity="0.796078431372549" d="M 471.5 472 L 474.5 476 L 471.5 472 Z " /><path fill="rgb(0,0,0)" stroke="rgb(0,0,0)" stroke-width="1" opacity="0.796078431372549" d="M 493.5 476 L 492.5 478 L 491 477.5 L 493.5 476 Z " /><path fill="rgb(0,0,0)" stroke="rgb(0,0,0)" stroke-width="1" opacity="0.796078431372549" d="M 477.5 477 L 479.5 480 L 477.5 477 Z " /><path fill="rgb(0,0,0)" stroke="rgb(0,0,0)" stroke-width="1" opacity="0.796078431372549" d="M 56.5 479 L 62 479.5 L 56.5 480 L 56.5 479 Z " /><path fill="rgb(0,0,0)" stroke="rgb(0,0,0)" stroke-width="1" opacity="0.796078431372549" d="M 322.5 479 L 328 479.5 L 322.5 480 L 322.5 479 Z " /><path fill="rgb(0,0,0)" stroke="rgb(0,0,0)" stroke-width="1" opacity="0.796078431372549" d="M 481.5 479 L 486 479.5 L 481.5 480 L 481.5 479 Z " /><path fill="rgb(0,0,0)" stroke="rgb(0,0,0)" stroke-width="1" opacity="1" d="M 302.5 32 L 324.5 34 L 345.5 40 Q 373.4 51.6 391 73.5 Q 401.2 86.3 408 102.5 L 414 123.5 L 416 146.5 L 415 147.5 L 415 158.5 L 412 173.5 L 407 187.5 Q 397.3 209.8 380.5 225 L 361 239.5 Q 372.4 249.1 379 263.5 L 382 272.5 L 383 285.5 L 384.5 288 L 480.5 224 Q 482 226.5 487.5 225 L 498.5 230 L 506 237.5 L 510 245.5 L 512 255.5 L 512 448.5 Q 509.5 450 511 455.5 L 506 466.5 L 498.5 474 L 490.5 478 L 480.5 480 L 384.5 400 L 384 417.5 L 383 418.5 L 383 427.5 L 381 435.5 Q 373.9 455.4 358.5 467 L 339.5 477 L 331.5 479 L 322.5 479 L 321.5 480 L 62.5 480 L 61.5 479 L 52.5 479 L 44.5 477 L 31.5 471 Q 20.5 464.5 13 454.5 L 3 435.5 L 1 427.5 L 1 418.5 L 0 417.5 L 0 287.5 L 1 286.5 L 2 272.5 L 5 263.5 Q 11.6 248.6 23.5 239 L 33 232.5 Q 17.5 218 8 197.5 L 2 179.5 L 0 158.5 L 1 157.5 L 2 140.5 L 9 119.5 Q 17.2 102.2 30.5 90 Q 44.7 76.2 65.5 69 L 82.5 65 L 97.5 64 L 98.5 65 L 115.5 66 L 136.5 73 Q 153.8 81.2 166 94.5 Q 179.8 108.7 187 129.5 L 191 146.5 L 192 161.5 L 191 162.5 L 191 173.5 L 189 183.5 L 185 195.5 Q 178.2 211.7 167 223.5 L 225.5 224 L 218 215.5 Q 206.2 201.3 199 182.5 L 194 164.5 L 192 142.5 L 193 141.5 L 194 123.5 L 200 102.5 Q 211.6 74.6 233.5 57 Q 246.3 46.8 262.5 40 L 278.5 35 L 289.5 33 L 301.5 33 L 302.5 32 Z M 303 63 L 302 64 L 287 65 L 274 69 L 254 81 Q 238 94 229 114 L 225 127 L 224 142 L 223 143 L 224 157 L 229 175 L 241 195 Q 254 210 274 219 L 287 223 L 302 224 L 303 225 L 317 224 L 335 219 L 355 207 Q 370 194 379 175 L 383 162 L 384 147 L 385 146 L 383 127 L 379 114 L 367 94 Q 354 78 335 69 L 317 64 L 303 63 Z M 87 96 L 72 100 L 64 104 L 50 114 L 40 128 L 36 136 L 32 151 L 32 170 L 34 179 L 40 193 L 50 206 L 64 216 L 72 220 L 87 224 L 106 224 L 115 222 L 129 216 L 142 206 L 152 193 L 156 185 L 160 170 L 160 151 L 158 142 L 152 128 L 142 114 L 129 104 L 115 98 L 106 96 L 87 96 Z M 58 256 L 46 261 Q 35 268 32 282 L 32 423 L 37 435 Q 44 445 58 448 L 327 448 L 339 443 Q 349 436 352 423 L 352 282 L 347 270 Q 340 259 327 256 L 58 256 Z M 480 256 L 386 319 L 384 320 L 384 369 L 478 446 L 480 448 L 480 256 Z " /></svg>